M48
METRIC,LZ,000.000
;FILE_FORMAT=3:3
;TYPE=PLATED
;Layer: PTH_Through
;EasyEDA v6.5.51, 2025-09-06 07:05:30
;62973c2a91a8465ca14b7521446b148e,ed13e26d4d8d426092ec29dadd734ac4,10
;Gerber Generator version 0.2
;Holesize 1 = 0.701 mm
T01C0.701
;Holesize 2 = 0.915 mm
T02C0.915
;Holesize 3 = 1.000 mm
T03C1.000
;Holesize 4 = 1.021 mm
T04C1.021
;Holesize 5 = 3.000 mm
T05C3.000
%
G05
G90
T01
X082042Y-030142
X082042Y-019642
T02
X145175Y022605
X144155Y024385
X143135Y022605
X142115Y024385
X141095Y022605
X140075Y024385
X139055Y022605
X138035Y024385
X146558Y-017448
X144018Y-017448
X141478Y-017448
X138938Y-017448
X136398Y-017448
X133858Y-017448
X131318Y-017448
X128778Y-017448
T03
X074041Y-023495
X076581Y-023495
T04
X090297Y-018669
X115697Y-018669
X090297Y-016129
X115697Y-016129
X090297Y-013589
X115697Y-013589
X090297Y-011049
X115697Y-011049
X090297Y-008509
X115697Y-008509
X090297Y-005969
X115697Y-005969
X090297Y-003429
X115697Y-003429
X090297Y-000889
X115697Y-000889
X090297Y001731
X115697Y001651
X090297Y004191
X115697Y004191
X090297Y006731
X115697Y006731
X090297Y009271
X115697Y009271
X090297Y011811
X115697Y011811
X090297Y014351
X115697Y014351
X090297Y016891
X115697Y016891
X090297Y019431
X115697Y019431
X090297Y021971
X115697Y021971
X090297Y024511
X115697Y024511
X090297Y027051
X115697Y027051
X072390Y-008128
X069850Y-008128
X067310Y-008128
X064770Y-008128
X074930Y-008128
X141097Y-006731
X138557Y-006731
X136017Y-006731
X143637Y-006731
X146177Y-006731
X138557Y012319
X141097Y012319
X143637Y012319
X151638Y-017448
X149098Y-017448
T05
X157464Y025051
X157464Y-033401
X051000Y025051
X051000Y-033401
M30
