G04 Layer: TopLayer*
G04 EasyEDA v6.5.51, 2025-09-06 07:05:30*
G04 62973c2a91a8465ca14b7521446b148e,ed13e26d4d8d426092ec29dadd734ac4,10*
G04 Gerber Generator version 0.2*
G04 Scale: 100 percent, Rotated: No, Reflected: No *
G04 Dimensions in millimeters *
G04 leading zeros omitted , absolute positions ,4 integer and 5 decimal *
%FSLAX45Y45*%
%MOMM*%

%ADD10C,0.2540*%
%ADD11C,1.2700*%
%ADD12C,1.6000*%
%ADD13C,7.0000*%
%ADD14C,1.4000*%
%ADD15C,1.5240*%
%ADD16R,1.5750X1.5750*%
%ADD17R,0.0122X1.5750*%
%ADD18C,1.5750*%
%ADD19C,2.0000*%
%ADD20R,1.5748X1.5748*%
%ADD21C,1.5748*%

%LPD*%
G36*
X6169660Y-939800D02*
G01*
X6165748Y-939037D01*
X6162446Y-936853D01*
X6160262Y-933551D01*
X6159500Y-929640D01*
X6153150Y2319883D01*
X6153912Y2323795D01*
X6156147Y2327097D01*
X6772452Y2943402D01*
X6775754Y2945638D01*
X6779666Y2946400D01*
X14036040Y2946400D01*
X14039951Y2945638D01*
X14043202Y2943402D01*
X14045438Y2940151D01*
X14046200Y2936240D01*
X14046200Y2552954D01*
X14045895Y2546400D01*
X14044726Y2542133D01*
X14041831Y2538780D01*
X14037818Y2537002D01*
X14033398Y2537053D01*
X14024508Y2539187D01*
X14010894Y2540508D01*
X13997279Y2540050D01*
X13983817Y2537815D01*
X13970812Y2533751D01*
X13958417Y2528011D01*
X13946936Y2520696D01*
X13936522Y2511907D01*
X13927378Y2501747D01*
X13919657Y2490520D01*
X13914526Y2480360D01*
X13912189Y2477363D01*
X13910259Y2476195D01*
X13910970Y2473248D01*
X13910411Y2469438D01*
X13909040Y2465476D01*
X13906347Y2452116D01*
X13905433Y2438501D01*
X13906347Y2424887D01*
X13909040Y2411526D01*
X13910411Y2407564D01*
X13910970Y2403754D01*
X13910259Y2400808D01*
X13912189Y2399639D01*
X13914526Y2396642D01*
X13919657Y2386482D01*
X13927378Y2375255D01*
X13936522Y2365095D01*
X13946327Y2356815D01*
X13949019Y2353360D01*
X13949934Y2349042D01*
X13949934Y2304948D01*
X13997279Y2304948D01*
X13996619Y2306523D01*
X13987729Y2321255D01*
X13986205Y2325370D01*
X13986560Y2329738D01*
X13988694Y2333599D01*
X13992301Y2336139D01*
X13996619Y2336952D01*
X14010894Y2336495D01*
X14018361Y2337206D01*
X14022171Y2336901D01*
X14025575Y2335174D01*
X14028115Y2332278D01*
X14029385Y2328672D01*
X14029283Y2324862D01*
X14027708Y2321356D01*
X14021663Y2312517D01*
X14016532Y2302357D01*
X14014196Y2299360D01*
X14012265Y2298192D01*
X14012976Y2295245D01*
X14012418Y2291435D01*
X14011046Y2287473D01*
X14008303Y2274112D01*
X14007439Y2260498D01*
X14008303Y2246884D01*
X14011046Y2233523D01*
X14012418Y2229561D01*
X14012976Y2225751D01*
X14012265Y2222804D01*
X14014196Y2221636D01*
X14016532Y2218639D01*
X14021663Y2208479D01*
X14029385Y2197252D01*
X14030858Y2195576D01*
X14032839Y2192426D01*
X14033500Y2188768D01*
X14033500Y2143861D01*
X14032738Y2139950D01*
X14030502Y2136648D01*
X14027150Y2134412D01*
X14023238Y2133701D01*
X12456058Y2146249D01*
X12452604Y2146909D01*
X12449556Y2148738D01*
X11875262Y2640939D01*
X11873687Y2641600D01*
X11698528Y2640634D01*
X11694617Y2641396D01*
X11691315Y2643581D01*
X11689080Y2646883D01*
X11688318Y2650794D01*
X11688318Y2658770D01*
X11628729Y2658770D01*
X11628729Y2650337D01*
X11627967Y2646476D01*
X11625783Y2643174D01*
X11622532Y2640990D01*
X11618620Y2640177D01*
X11534190Y2639720D01*
X11530279Y2640482D01*
X11526977Y2642717D01*
X11524742Y2646019D01*
X11523980Y2649880D01*
X11523980Y2658770D01*
X11465052Y2658821D01*
X11465052Y2649474D01*
X11464290Y2645613D01*
X11462105Y2642311D01*
X11458803Y2640076D01*
X11454942Y2639314D01*
X9550501Y2628900D01*
X9126270Y2633370D01*
X9122054Y2634335D01*
X9118600Y2636977D01*
X9116568Y2640838D01*
X9116314Y2645156D01*
X9117939Y2649169D01*
X9120327Y2652776D01*
X9126372Y2665069D01*
X9130792Y2678023D01*
X9133433Y2691434D01*
X9134348Y2705100D01*
X9133433Y2718765D01*
X9130792Y2732176D01*
X9126372Y2745130D01*
X9120327Y2757424D01*
X9112707Y2768803D01*
X9103664Y2779064D01*
X9093403Y2788107D01*
X9082024Y2795727D01*
X9069730Y2801772D01*
X9056776Y2806192D01*
X9043365Y2808833D01*
X9033306Y2809595D01*
X9030817Y2810103D01*
X9017000Y2810967D01*
X9003182Y2810103D01*
X8989618Y2807360D01*
X8976461Y2802940D01*
X8964066Y2796794D01*
X8952534Y2789123D01*
X8942120Y2779979D01*
X8932976Y2769565D01*
X8925306Y2758033D01*
X8919159Y2745638D01*
X8914739Y2732481D01*
X8911996Y2718917D01*
X8911132Y2705100D01*
X8911996Y2691282D01*
X8914739Y2677718D01*
X8919159Y2664561D01*
X8925306Y2652166D01*
X8927388Y2647340D01*
X8927134Y2642971D01*
X8925052Y2639110D01*
X8921546Y2636520D01*
X8917228Y2635605D01*
X7151116Y2654300D01*
X7149490Y2653741D01*
X6649364Y2223262D01*
X6648450Y2221484D01*
X6642353Y-754430D01*
X6641947Y-757377D01*
X6634327Y-772769D01*
X6629908Y-785723D01*
X6627266Y-799134D01*
X6626352Y-812800D01*
X6627266Y-826465D01*
X6629908Y-839876D01*
X6634327Y-852830D01*
X6641693Y-867867D01*
X6642150Y-870864D01*
X6642100Y-929640D01*
X6641338Y-933551D01*
X6639102Y-936802D01*
X6635851Y-939037D01*
X6631940Y-939800D01*
G37*

%LPC*%
G36*
X6535420Y-917448D02*
G01*
X6567881Y-917448D01*
X6574180Y-916736D01*
X6579666Y-914806D01*
X6584543Y-911758D01*
X6588658Y-907643D01*
X6591706Y-902766D01*
X6593636Y-897280D01*
X6594348Y-890981D01*
X6594348Y-858519D01*
X6535420Y-858519D01*
G37*
G36*
X6398818Y-917448D02*
G01*
X6431280Y-917448D01*
X6431280Y-858519D01*
X6372352Y-858519D01*
X6372352Y-890981D01*
X6373063Y-897280D01*
X6374942Y-902766D01*
X6378041Y-907643D01*
X6382156Y-911758D01*
X6387033Y-914857D01*
X6392519Y-916736D01*
G37*
G36*
X6535420Y-767080D02*
G01*
X6594348Y-767080D01*
X6594348Y-734618D01*
X6593636Y-728319D01*
X6591706Y-722833D01*
X6588658Y-717956D01*
X6584543Y-713841D01*
X6579666Y-710793D01*
X6574180Y-708863D01*
X6567881Y-708152D01*
X6535420Y-708152D01*
G37*
G36*
X6372352Y-767080D02*
G01*
X6431280Y-767080D01*
X6431280Y-708152D01*
X6398818Y-708152D01*
X6392519Y-708863D01*
X6387033Y-710742D01*
X6382156Y-713841D01*
X6378041Y-717956D01*
X6374942Y-722833D01*
X6373063Y-728319D01*
X6372352Y-734618D01*
G37*
G36*
X13949934Y2168702D02*
G01*
X13960449Y2174443D01*
X13971422Y2182520D01*
X13981226Y2192020D01*
X13989659Y2202738D01*
X13996619Y2214473D01*
X13997279Y2216048D01*
X13949934Y2216048D01*
G37*
G36*
X13861034Y2168855D02*
G01*
X13861034Y2216048D01*
X13813840Y2216048D01*
X13817650Y2208479D01*
X13825372Y2197252D01*
X13834516Y2187143D01*
X13844930Y2178304D01*
X13856462Y2170988D01*
G37*
G36*
X13813840Y2304948D02*
G01*
X13861034Y2304948D01*
X13861034Y2367127D01*
X13861948Y2371344D01*
X13864488Y2374747D01*
X13868196Y2376830D01*
X13877798Y2379726D01*
X13888110Y2381453D01*
X13894612Y2392476D01*
X13895273Y2394051D01*
X13847978Y2394051D01*
X13847978Y2331669D01*
X13847165Y2327706D01*
X13844879Y2324354D01*
X13840409Y2321814D01*
X13824508Y2317902D01*
X13821054Y2317496D01*
X13817650Y2312517D01*
G37*
G36*
X13759078Y2346858D02*
G01*
X13759078Y2394051D01*
X13711834Y2394051D01*
X13715644Y2386482D01*
X13723366Y2375255D01*
X13732510Y2365095D01*
X13742924Y2356307D01*
X13754455Y2348992D01*
G37*
G36*
X13711834Y2482951D02*
G01*
X13759078Y2482951D01*
X13759078Y2530144D01*
X13754455Y2528011D01*
X13742924Y2520696D01*
X13732510Y2511907D01*
X13723366Y2501747D01*
X13715644Y2490520D01*
G37*
G36*
X13847978Y2482951D02*
G01*
X13895273Y2482951D01*
X13894612Y2484526D01*
X13887653Y2496261D01*
X13879220Y2506980D01*
X13869416Y2516479D01*
X13858443Y2524556D01*
X13847978Y2530297D01*
G37*
G36*
X13525500Y2496616D02*
G01*
X13544702Y2497531D01*
X13563701Y2500376D01*
X13582345Y2505049D01*
X13600480Y2511501D01*
X13617854Y2519730D01*
X13634313Y2529636D01*
X13649756Y2541066D01*
X13664031Y2553970D01*
X13676934Y2568244D01*
X13688364Y2583688D01*
X13698270Y2600147D01*
X13706500Y2617520D01*
X13712951Y2635656D01*
X13717625Y2654300D01*
X13720470Y2673299D01*
X13721384Y2692501D01*
X13720470Y2711704D01*
X13717625Y2730703D01*
X13712951Y2749346D01*
X13706500Y2767482D01*
X13698270Y2784856D01*
X13688364Y2801315D01*
X13676934Y2816758D01*
X13664031Y2831033D01*
X13649756Y2843936D01*
X13634313Y2855366D01*
X13617854Y2865272D01*
X13600480Y2873502D01*
X13582345Y2879953D01*
X13563701Y2884627D01*
X13544702Y2887472D01*
X13525500Y2888386D01*
X13506297Y2887472D01*
X13487298Y2884627D01*
X13468654Y2879953D01*
X13450519Y2873502D01*
X13433145Y2865272D01*
X13416686Y2855366D01*
X13401243Y2843936D01*
X13386968Y2831033D01*
X13374065Y2816758D01*
X13362635Y2801315D01*
X13352729Y2784856D01*
X13344499Y2767482D01*
X13338048Y2749346D01*
X13333374Y2730703D01*
X13330529Y2711704D01*
X13329615Y2692501D01*
X13330529Y2673299D01*
X13333374Y2654300D01*
X13338048Y2635656D01*
X13344499Y2617520D01*
X13352729Y2600147D01*
X13362635Y2583688D01*
X13374065Y2568244D01*
X13386968Y2553970D01*
X13401243Y2541066D01*
X13416686Y2529636D01*
X13433145Y2519730D01*
X13450519Y2511501D01*
X13468654Y2505049D01*
X13487298Y2500376D01*
X13506297Y2497531D01*
G37*
G36*
X11465052Y2751175D02*
G01*
X11466322Y2751429D01*
X11523980Y2751429D01*
X11523980Y2811018D01*
X11502948Y2811018D01*
X11485168Y2809036D01*
X11479733Y2807157D01*
X11474856Y2804058D01*
X11470741Y2799943D01*
X11467642Y2795066D01*
X11465763Y2789580D01*
X11465052Y2783281D01*
G37*
G36*
X11628729Y2751429D02*
G01*
X11688318Y2751429D01*
X11688318Y2784551D01*
X11687606Y2790850D01*
X11685676Y2796336D01*
X11682628Y2801213D01*
X11678513Y2805328D01*
X11673636Y2808376D01*
X11668150Y2810306D01*
X11661851Y2811018D01*
X11628729Y2811018D01*
G37*

%LPD*%
G36*
X14579346Y-1808835D02*
G01*
X14630400Y-1868322D01*
X14655800Y-1868322D01*
X14706854Y-1808835D01*
G37*
G36*
X14389100Y-1636166D02*
G01*
X14331899Y-1689709D01*
X14458645Y-1703730D01*
X14414500Y-1638960D01*
G37*
G36*
X14389100Y-1641043D02*
G01*
X14344650Y-1694383D01*
X14458950Y-1694383D01*
X14414500Y-1641043D01*
G37*
G36*
X14592909Y-1787855D02*
G01*
X14630400Y-1846224D01*
X14655800Y-1849323D01*
X14706346Y-1801825D01*
G37*
G36*
X14096949Y1339088D02*
G01*
X14050619Y1283970D01*
X14168729Y1284020D01*
X14122349Y1339088D01*
G37*
G36*
X9096146Y-1347317D02*
G01*
X9018574Y-1438859D01*
X9091879Y-1439011D01*
X9108338Y-1419555D01*
G37*
G36*
X8957462Y1742541D02*
G01*
X8907322Y1689100D01*
X8910320Y1663700D01*
X8971432Y1623364D01*
G37*
G36*
X11635333Y225094D02*
G01*
X11635333Y105105D01*
X11691315Y152400D01*
X11691315Y177800D01*
G37*
G36*
X11635333Y-28905D02*
G01*
X11635333Y-148894D01*
X11691315Y-101600D01*
X11691315Y-76200D01*
G37*
G36*
X11662257Y-337870D02*
G01*
X11577370Y-422757D01*
X11650421Y-428904D01*
X11668404Y-410921D01*
G37*
G36*
X14122349Y1339138D02*
G01*
X14096949Y1339088D01*
X14050619Y1283970D01*
X14168729Y1284020D01*
G37*
G36*
X13843000Y-565861D02*
G01*
X13796619Y-621030D01*
X13914780Y-621030D01*
X13868400Y-565861D01*
G37*
G36*
X14050619Y-725170D02*
G01*
X14097000Y-774700D01*
X14122400Y-774700D01*
X14168780Y-725170D01*
G37*
G36*
X13843000Y-565912D02*
G01*
X13796670Y-621030D01*
X13914729Y-621030D01*
X13868400Y-565912D01*
G37*
G36*
X14050670Y-725170D02*
G01*
X14097000Y-774700D01*
X14122400Y-774700D01*
X14168729Y-725170D01*
G37*
G36*
X8956852Y1757578D02*
G01*
X8892946Y1689100D01*
X8895334Y1663700D01*
X8970822Y1608277D01*
G37*
G36*
X11621770Y224180D02*
G01*
X11621770Y106019D01*
X11676888Y152400D01*
X11676888Y177800D01*
G37*
G36*
X11621770Y-29819D02*
G01*
X11621770Y-147980D01*
X11676888Y-101600D01*
X11676888Y-76200D01*
G37*
G36*
X11647627Y-331419D02*
G01*
X11571376Y-421640D01*
X11643360Y-421843D01*
X11659819Y-402336D01*
G37*
G36*
X9108287Y-591972D02*
G01*
X9024772Y-675487D01*
X9096552Y-681685D01*
X9114485Y-663752D01*
G37*
G36*
X9108287Y-1353972D02*
G01*
X9024772Y-1437487D01*
X9096552Y-1443685D01*
X9114485Y-1425752D01*
G37*
G36*
X14052346Y2210104D02*
G01*
X14096796Y2156764D01*
X14122196Y2156764D01*
X14166646Y2210104D01*
G37*
G36*
X14256308Y2210155D02*
G01*
X14300707Y2156764D01*
X14326107Y2156764D01*
X14370608Y2210054D01*
G37*
G36*
X7391400Y-2240584D02*
G01*
X7344105Y-2296566D01*
X7464094Y-2296566D01*
X7416800Y-2240584D01*
G37*
D10*
X9017000Y-1612900D02*
G01*
X9029700Y-1612900D01*
X11582400Y-1612900D02*
G01*
X11569700Y-1612900D01*
X11582400Y-1358900D02*
G01*
X11569700Y-1358900D01*
X9017000Y-1104900D02*
G01*
X9029700Y-1104900D01*
X11582400Y-1104900D02*
G01*
X11569700Y-1104900D01*
X9017000Y-850900D02*
G01*
X9029700Y-850900D01*
X11582400Y-850900D02*
G01*
X11569700Y-850900D01*
X11582400Y-596900D02*
G01*
X11569700Y-596900D01*
X11582400Y-342900D02*
G01*
X11569700Y-342900D01*
X9017000Y-88900D02*
G01*
X9029700Y-88900D01*
X11582400Y-88900D02*
G01*
X11569700Y-88900D01*
X9017000Y419100D02*
G01*
X9029700Y419100D01*
X11582400Y419100D02*
G01*
X11569700Y419100D01*
X11582400Y673100D02*
G01*
X11569700Y673100D01*
X9017000Y1181100D02*
G01*
X9029700Y1181100D01*
X11582400Y1181100D02*
G01*
X11569700Y1181100D01*
X9017000Y1435100D02*
G01*
X9029700Y1435100D01*
X11582400Y1689100D02*
G01*
X11569700Y1689100D01*
X9017000Y1943100D02*
G01*
X9029700Y1943100D01*
X11582400Y1943100D02*
G01*
X11569700Y1943100D01*
X9017000Y2197100D02*
G01*
X9029700Y2197100D01*
X11582400Y2197100D02*
G01*
X11569700Y2197100D01*
X9017000Y2451100D02*
G01*
X9029700Y2451100D01*
X9017000Y2705100D02*
G01*
X9029700Y2705100D01*
X9017000Y1689100D02*
G01*
X9029700Y1689100D01*
X9017000Y-1866900D02*
G01*
X9029700Y-1866900D01*
X9017000Y-342900D02*
G01*
X9029700Y-342900D01*
X11582400Y2451100D02*
G01*
X11569700Y2451100D01*
X6731000Y-812800D02*
G01*
X6743700Y-812800D01*
X11569700Y1435100D02*
G01*
X11582400Y1435100D01*
X11582400Y165100D02*
G01*
X11569700Y165100D01*
D11*
X11582400Y2705100D02*
G01*
X11569700Y2705100D01*
X6489700Y-812800D02*
G01*
X6477000Y-812800D01*
D10*
X11582400Y-1866900D02*
G01*
X11569700Y-1866900D01*
X9017000Y-1358900D02*
G01*
X9029700Y-1358900D01*
X9017000Y-596900D02*
G01*
X9029700Y-596900D01*
X9017000Y673100D02*
G01*
X9029700Y673100D01*
X6985000Y-812800D02*
G01*
X6997700Y-812800D01*
X9017000Y927100D02*
G01*
X9029700Y927100D01*
X7239000Y-812800D02*
G01*
X7251700Y-812800D01*
X11582400Y927100D02*
G01*
X11569700Y927100D01*
X14643100Y-1752600D02*
G01*
X14643100Y-1905000D01*
X14401800Y-2146300D01*
X9817100Y-2146300D01*
X9029700Y-1358900D01*
X14109700Y-673100D02*
G01*
X14109700Y-774700D01*
X14046200Y-838200D01*
X12077700Y-838200D01*
X11582400Y-342900D01*
X13855700Y-673100D02*
G01*
X13855700Y-546100D01*
X13398500Y-88900D01*
X11582400Y-88900D01*
X14401800Y-1744726D02*
G01*
X14401800Y-1612900D01*
X13766800Y-977900D01*
X9410700Y-977900D01*
X9029700Y-596900D01*
X14109700Y1231900D02*
G01*
X14109445Y2260600D01*
X7404100Y-2349500D02*
G01*
X7404100Y-1905000D01*
X8636000Y-673100D01*
X8636000Y1511300D01*
X8801100Y1676400D01*
X9017000Y1676400D01*
X9029700Y1689100D01*
X14313408Y2260600D02*
G01*
X14313408Y2120392D01*
X14579600Y1854200D01*
X14579600Y533400D01*
X14211300Y165100D01*
X11582400Y165100D01*
D12*
G01*
X7404100Y-2349500D03*
G01*
X7658100Y-2349500D03*
D13*
G01*
X15746374Y2505100D03*
G01*
X15746374Y-3340100D03*
G01*
X5099989Y2505100D03*
G01*
X5099989Y-3340100D03*
D14*
G01*
X8204200Y-3014192D03*
G01*
X8204200Y-1964207D03*
D15*
G01*
X14517497Y2260498D03*
G01*
X14415490Y2438501D03*
G01*
X14313509Y2260498D03*
G01*
X14211503Y2438501D03*
G01*
X14109496Y2260498D03*
G01*
X14007490Y2438501D03*
G01*
X13905509Y2260498D03*
G01*
X13803502Y2438501D03*
D16*
G01*
X9029700Y-1866900D03*
D18*
G01*
X11569700Y-1866900D03*
G01*
X9029700Y-1612900D03*
G01*
X11569700Y-1612900D03*
G01*
X9029700Y-1358900D03*
G01*
X11569700Y-1358900D03*
G01*
X9029700Y-1104900D03*
G01*
X11569700Y-1104900D03*
G01*
X9029700Y-850900D03*
G01*
X11569700Y-850900D03*
G01*
X9029700Y-596900D03*
G01*
X11569700Y-596900D03*
G01*
X9029700Y-342900D03*
G01*
X11569700Y-342900D03*
G01*
X9029700Y-88900D03*
G01*
X11569700Y-88900D03*
G01*
X9029700Y173101D03*
G01*
X11569700Y165100D03*
G01*
X9029700Y419100D03*
G01*
X11569700Y419100D03*
G01*
X9029700Y673100D03*
G01*
X11569700Y673100D03*
G01*
X9029700Y927100D03*
G01*
X11569700Y927100D03*
G01*
X9029700Y1181100D03*
G01*
X11569700Y1181100D03*
G01*
X9029700Y1435100D03*
G01*
X11569700Y1435100D03*
D19*
G01*
X9029700Y1689100D03*
D18*
G01*
X11569700Y1689100D03*
G01*
X9029700Y1943100D03*
G01*
X11569700Y1943100D03*
G01*
X9029700Y2197100D03*
G01*
X11569700Y2197100D03*
G01*
X9029700Y2451100D03*
G01*
X11569700Y2451100D03*
G01*
X9029700Y2705100D03*
D16*
G01*
X11569700Y2705100D03*
D18*
G01*
X7239000Y-812800D03*
G01*
X6985000Y-812800D03*
G01*
X6731000Y-812800D03*
D16*
G01*
X6477000Y-812800D03*
D18*
G01*
X7493000Y-812800D03*
G01*
X14109700Y-673100D03*
G01*
X13855700Y-673100D03*
D16*
G01*
X13601700Y-673100D03*
D18*
G01*
X14363700Y-673100D03*
G01*
X14617700Y-673100D03*
D16*
G01*
X13855700Y1231900D03*
D18*
G01*
X14109700Y1231900D03*
G01*
X14363700Y1231900D03*
D20*
G01*
X15163800Y-1744802D03*
D21*
G01*
X14909800Y-1744802D03*
D15*
G01*
X14655800Y-1744802D03*
G01*
X14401800Y-1744802D03*
G01*
X14147800Y-1744802D03*
G01*
X13893800Y-1744802D03*
G01*
X13639800Y-1744802D03*
G01*
X13385800Y-1744802D03*
G01*
X13131800Y-1744802D03*
G01*
X12877800Y-1744802D03*
M02*
