G04 Layer: BottomLayer*
G04 EasyEDA v6.5.51, 2025-09-06 07:05:30*
G04 62973c2a91a8465ca14b7521446b148e,ed13e26d4d8d426092ec29dadd734ac4,10*
G04 Gerber Generator version 0.2*
G04 Scale: 100 percent, Rotated: No, Reflected: No *
G04 Dimensions in millimeters *
G04 leading zeros omitted , absolute positions ,4 integer and 5 decimal *
%FSLAX45Y45*%
%MOMM*%

%ADD10C,0.2540*%
%ADD11C,1.2700*%
%ADD12C,1.0000*%
%ADD13C,1.6000*%
%ADD14C,7.0000*%
%ADD15C,1.4000*%
%ADD16C,1.5240*%
%ADD17R,1.5750X1.5750*%
%ADD18C,1.5750*%
%ADD19C,0.0193*%
%ADD20C,2.0000*%
%ADD21R,1.5748X1.5748*%
%ADD22C,1.5748*%

%LPD*%
G36*
X5093512Y-3880408D02*
G01*
X5062880Y-3879392D01*
X5033264Y-3876598D01*
X5003850Y-3871925D01*
X4974793Y-3865372D01*
X4946192Y-3857040D01*
X4918202Y-3846931D01*
X4890871Y-3835095D01*
X4864303Y-3821582D01*
X4838700Y-3806393D01*
X4814062Y-3789629D01*
X4790541Y-3771341D01*
X4768240Y-3751630D01*
X4747209Y-3730599D01*
X4727498Y-3708247D01*
X4709261Y-3684676D01*
X4692548Y-3660038D01*
X4677410Y-3634384D01*
X4663897Y-3607866D01*
X4652111Y-3580536D01*
X4642002Y-3552494D01*
X4633722Y-3523894D01*
X4627270Y-3494786D01*
X4622596Y-3465372D01*
X4619853Y-3435756D01*
X4618888Y-3405733D01*
X4618888Y2499461D01*
X4619853Y2530094D01*
X4622698Y2559710D01*
X4627372Y2589123D01*
X4633874Y2618181D01*
X4642205Y2646781D01*
X4652314Y2674823D01*
X4664151Y2702153D01*
X4677714Y2728671D01*
X4692904Y2754274D01*
X4709668Y2778912D01*
X4727905Y2802432D01*
X4747615Y2824734D01*
X4768697Y2845816D01*
X4791049Y2865475D01*
X4814620Y2883712D01*
X4839258Y2900426D01*
X4864862Y2915564D01*
X4891430Y2929077D01*
X4918760Y2940913D01*
X4946802Y2950972D01*
X4975402Y2959252D01*
X5004460Y2965704D01*
X5033873Y2970377D01*
X5063540Y2973171D01*
X5093512Y2974086D01*
X15749727Y2974086D01*
X15780359Y2973120D01*
X15810026Y2970276D01*
X15839389Y2965602D01*
X15868497Y2959100D01*
X15897047Y2950768D01*
X15925088Y2940659D01*
X15952419Y2928823D01*
X15978936Y2915259D01*
X16004540Y2900070D01*
X16029178Y2883357D01*
X16052698Y2865069D01*
X16074999Y2845358D01*
X16096081Y2824276D01*
X16115741Y2801924D01*
X16133978Y2778404D01*
X16150691Y2753766D01*
X16165830Y2728112D01*
X16179342Y2701544D01*
X16191179Y2674213D01*
X16201237Y2646172D01*
X16209518Y2617571D01*
X16216020Y2588514D01*
X16220643Y2559100D01*
X16223437Y2529433D01*
X16224351Y2499461D01*
X16224351Y-3405733D01*
X16223386Y-3436365D01*
X16220541Y-3466033D01*
X16215868Y-3495446D01*
X16209365Y-3524504D01*
X16201034Y-3553104D01*
X16190925Y-3581095D01*
X16179088Y-3608425D01*
X16165525Y-3634943D01*
X16150386Y-3660597D01*
X16133622Y-3685184D01*
X16115334Y-3708704D01*
X16095624Y-3731056D01*
X16074542Y-3752087D01*
X16052190Y-3771747D01*
X16028669Y-3789984D01*
X16004032Y-3806748D01*
X15978378Y-3821887D01*
X15951809Y-3835400D01*
X15924479Y-3847185D01*
X15896437Y-3857244D01*
X15867837Y-3865524D01*
X15838779Y-3872026D01*
X15809366Y-3876649D01*
X15779699Y-3879443D01*
X15749727Y-3880408D01*
G37*

%LPC*%
G36*
X15877743Y-3582568D02*
G01*
X15894202Y-3573068D01*
X15913201Y-3559860D01*
X15930981Y-3545128D01*
X15947491Y-3528974D01*
X15962579Y-3511499D01*
X15976193Y-3492804D01*
X15988944Y-3471468D01*
X15877743Y-3471468D01*
G37*
G36*
X5231333Y-3582568D02*
G01*
X5247843Y-3573068D01*
X5266791Y-3559860D01*
X5284622Y-3545128D01*
X5301132Y-3528974D01*
X5316220Y-3511499D01*
X5329783Y-3492804D01*
X5341772Y-3472992D01*
X5342534Y-3471468D01*
X5231333Y-3471468D01*
G37*
G36*
X15615005Y-3582466D02*
G01*
X15615005Y-3471468D01*
X15504007Y-3471468D01*
X15510357Y-3483000D01*
X15523159Y-3502253D01*
X15537535Y-3520389D01*
X15553334Y-3537204D01*
X15570504Y-3552698D01*
X15588894Y-3566668D01*
X15608401Y-3579012D01*
G37*
G36*
X4968646Y-3582466D02*
G01*
X4968646Y-3471468D01*
X4857648Y-3471468D01*
X4863998Y-3483000D01*
X4876800Y-3502253D01*
X4891125Y-3520389D01*
X4906975Y-3537204D01*
X4924145Y-3552698D01*
X4942535Y-3566668D01*
X4962042Y-3579012D01*
G37*
G36*
X15504007Y-3208731D02*
G01*
X15615005Y-3208731D01*
X15615005Y-3097733D01*
X15608401Y-3101187D01*
X15588894Y-3113532D01*
X15570504Y-3127502D01*
X15553334Y-3142996D01*
X15537535Y-3159810D01*
X15523159Y-3177946D01*
X15510357Y-3197199D01*
G37*
G36*
X4857648Y-3208731D02*
G01*
X4968646Y-3208731D01*
X4968646Y-3097733D01*
X4962042Y-3101187D01*
X4942535Y-3113532D01*
X4924145Y-3127502D01*
X4906975Y-3142996D01*
X4891125Y-3159810D01*
X4876800Y-3177946D01*
X4863998Y-3197199D01*
G37*
G36*
X5231333Y-3208731D02*
G01*
X5342534Y-3208731D01*
X5341772Y-3207207D01*
X5329783Y-3187395D01*
X5316220Y-3168751D01*
X5301132Y-3151225D01*
X5284622Y-3135071D01*
X5266791Y-3120339D01*
X5247843Y-3107131D01*
X5231333Y-3097631D01*
G37*
G36*
X15877743Y-3208731D02*
G01*
X15988944Y-3208731D01*
X15976193Y-3187395D01*
X15962579Y-3168751D01*
X15947491Y-3151225D01*
X15930981Y-3135071D01*
X15913201Y-3120339D01*
X15894202Y-3107131D01*
X15877743Y-3097631D01*
G37*
G36*
X8245551Y-3100527D02*
G01*
X8254034Y-3096107D01*
X8264702Y-3088589D01*
X8274253Y-3079648D01*
X8282533Y-3069488D01*
X8289340Y-3058312D01*
X8290509Y-3055569D01*
X8245551Y-3055569D01*
G37*
G36*
X8162848Y-3100527D02*
G01*
X8162848Y-3055569D01*
X8117890Y-3055569D01*
X8119059Y-3058312D01*
X8125866Y-3069488D01*
X8134146Y-3079648D01*
X8143697Y-3088589D01*
X8154365Y-3096107D01*
G37*
G36*
X8117890Y-2972866D02*
G01*
X8162848Y-2972866D01*
X8162848Y-2927908D01*
X8154365Y-2932277D01*
X8143697Y-2939846D01*
X8134146Y-2948736D01*
X8125866Y-2958896D01*
X8119059Y-2970072D01*
G37*
G36*
X8245551Y-2972866D02*
G01*
X8290509Y-2972866D01*
X8289340Y-2970072D01*
X8282533Y-2958896D01*
X8274253Y-2948736D01*
X8264702Y-2939846D01*
X8254034Y-2932277D01*
X8245551Y-2927908D01*
G37*
G36*
X7404100Y-2455367D02*
G01*
X7417917Y-2454503D01*
X7431481Y-2451760D01*
X7444638Y-2447340D01*
X7457033Y-2441194D01*
X7468565Y-2433523D01*
X7478979Y-2424379D01*
X7488123Y-2413965D01*
X7495794Y-2402433D01*
X7501940Y-2390038D01*
X7506360Y-2376881D01*
X7509103Y-2363317D01*
X7509967Y-2349500D01*
X7509103Y-2335682D01*
X7506360Y-2322118D01*
X7501940Y-2308961D01*
X7495794Y-2296566D01*
X7488123Y-2285034D01*
X7478979Y-2274620D01*
X7468565Y-2265476D01*
X7457033Y-2257806D01*
X7444638Y-2251659D01*
X7431481Y-2247239D01*
X7417917Y-2244496D01*
X7404100Y-2243632D01*
X7390282Y-2244496D01*
X7376718Y-2247239D01*
X7363561Y-2251659D01*
X7351166Y-2257806D01*
X7339634Y-2265476D01*
X7329220Y-2274620D01*
X7320076Y-2285034D01*
X7312406Y-2296566D01*
X7306259Y-2308961D01*
X7301839Y-2322118D01*
X7299096Y-2335682D01*
X7298232Y-2349500D01*
X7299096Y-2363317D01*
X7301839Y-2376881D01*
X7306259Y-2390038D01*
X7312406Y-2402433D01*
X7320076Y-2413965D01*
X7329220Y-2424379D01*
X7339634Y-2433523D01*
X7351166Y-2441194D01*
X7363561Y-2447340D01*
X7376718Y-2451760D01*
X7390282Y-2454503D01*
G37*
G36*
X7658100Y-2455367D02*
G01*
X7671917Y-2454503D01*
X7685481Y-2451760D01*
X7698638Y-2447340D01*
X7711033Y-2441194D01*
X7722565Y-2433523D01*
X7732979Y-2424379D01*
X7742123Y-2413965D01*
X7749794Y-2402433D01*
X7755940Y-2390038D01*
X7760360Y-2376881D01*
X7763103Y-2363317D01*
X7768793Y-2296769D01*
X7769707Y-2293366D01*
X7771739Y-2290470D01*
X8056422Y-2005787D01*
X8059724Y-2003602D01*
X8063585Y-2002840D01*
X8096097Y-2002840D01*
X8099501Y-2003399D01*
X8102498Y-2005075D01*
X8143494Y-2038451D01*
X8154365Y-2046122D01*
X8165998Y-2052167D01*
X8178342Y-2056536D01*
X8191144Y-2059178D01*
X8204200Y-2060092D01*
X8217255Y-2059178D01*
X8230057Y-2056536D01*
X8242401Y-2052167D01*
X8254034Y-2046122D01*
X8264702Y-2038553D01*
X8274253Y-2029663D01*
X8282533Y-2019503D01*
X8289340Y-2008327D01*
X8294573Y-1996287D01*
X8298078Y-1983689D01*
X8299856Y-1970735D01*
X8299856Y-1957679D01*
X8298078Y-1944674D01*
X8294573Y-1932076D01*
X8289340Y-1920087D01*
X8282533Y-1908911D01*
X8274253Y-1898751D01*
X8264702Y-1889810D01*
X8254034Y-1882292D01*
X8242401Y-1876247D01*
X8230057Y-1871878D01*
X8217255Y-1869186D01*
X8204200Y-1868322D01*
X8191144Y-1869186D01*
X8178342Y-1871878D01*
X8165998Y-1876247D01*
X8154365Y-1882292D01*
X8143494Y-1889963D01*
X8102498Y-1923338D01*
X8099501Y-1925015D01*
X8096097Y-1925624D01*
X8043875Y-1925624D01*
X8035848Y-1926386D01*
X8028635Y-1928571D01*
X8021980Y-1932127D01*
X8015731Y-1937257D01*
X7717129Y-2235860D01*
X7714234Y-2237892D01*
X7710830Y-2238806D01*
X7644434Y-2244496D01*
X7630718Y-2247239D01*
X7617561Y-2251659D01*
X7605166Y-2257806D01*
X7593634Y-2265476D01*
X7583220Y-2274620D01*
X7574076Y-2285034D01*
X7566406Y-2296566D01*
X7560259Y-2308961D01*
X7555839Y-2322118D01*
X7553096Y-2335682D01*
X7552232Y-2349500D01*
X7553096Y-2363317D01*
X7555839Y-2376881D01*
X7560259Y-2390038D01*
X7566406Y-2402433D01*
X7574076Y-2413965D01*
X7583220Y-2424379D01*
X7593634Y-2433523D01*
X7605166Y-2441194D01*
X7617561Y-2447340D01*
X7630718Y-2451760D01*
X7644282Y-2454503D01*
G37*
G36*
X9075420Y-1972818D02*
G01*
X9096451Y-1972818D01*
X9114231Y-1970836D01*
X9119666Y-1968957D01*
X9124543Y-1965858D01*
X9128658Y-1961743D01*
X9131757Y-1956866D01*
X9133636Y-1951380D01*
X9134348Y-1945081D01*
X9134348Y-1913178D01*
X9075420Y-1913229D01*
G37*
G36*
X8937548Y-1972818D02*
G01*
X8970670Y-1972818D01*
X8970670Y-1913229D01*
X8911082Y-1913229D01*
X8911082Y-1946351D01*
X8911793Y-1952650D01*
X8913723Y-1958136D01*
X8916771Y-1963013D01*
X8920886Y-1967128D01*
X8925763Y-1970176D01*
X8931249Y-1972106D01*
G37*
G36*
X11582400Y-1972767D02*
G01*
X11596217Y-1971903D01*
X11609781Y-1969160D01*
X11622938Y-1964740D01*
X11635333Y-1958593D01*
X11644579Y-1952447D01*
X11648440Y-1950872D01*
X11692737Y-1942947D01*
X11694515Y-1942795D01*
X12258141Y-1942744D01*
X12266980Y-1941931D01*
X12269419Y-1941525D01*
X12278055Y-1939391D01*
X12280392Y-1938629D01*
X12288621Y-1935225D01*
X12290806Y-1934108D01*
X12298426Y-1929485D01*
X12307265Y-1922424D01*
X13465860Y-763879D01*
X13469061Y-761746D01*
X13472871Y-760933D01*
X13476732Y-761644D01*
X13513358Y-775919D01*
X13655852Y-835660D01*
X13659104Y-837844D01*
X14261134Y-1439824D01*
X14269974Y-1446885D01*
X14277594Y-1451508D01*
X14279778Y-1452626D01*
X14288007Y-1456029D01*
X14290344Y-1456791D01*
X14298980Y-1458925D01*
X14301419Y-1459331D01*
X14310258Y-1460144D01*
X14899538Y-1460195D01*
X14903450Y-1460957D01*
X14906751Y-1463192D01*
X15064333Y-1620774D01*
X15066365Y-1623771D01*
X15067280Y-1627276D01*
X15066873Y-1630883D01*
X15065248Y-1634083D01*
X15051989Y-1651558D01*
X15049093Y-1656334D01*
X15047163Y-1661871D01*
X15046451Y-1668170D01*
X15046451Y-1837029D01*
X15047163Y-1843328D01*
X15049093Y-1848815D01*
X15052141Y-1853692D01*
X15056256Y-1857806D01*
X15061133Y-1860905D01*
X15066619Y-1862785D01*
X15072918Y-1863496D01*
X15229281Y-1863496D01*
X15235580Y-1862785D01*
X15241066Y-1860905D01*
X15245943Y-1857806D01*
X15250058Y-1853692D01*
X15253563Y-1848154D01*
X15256763Y-1844954D01*
X15258643Y-1843735D01*
X15262758Y-1839671D01*
X15265806Y-1834743D01*
X15267736Y-1829307D01*
X15268448Y-1822957D01*
X15268448Y-1666646D01*
X15267736Y-1660296D01*
X15265298Y-1653641D01*
X15240203Y-1607210D01*
X15239034Y-1603806D01*
X15238374Y-1598828D01*
X15236291Y-1590344D01*
X15235529Y-1588008D01*
X15232126Y-1579778D01*
X15231008Y-1577594D01*
X15226385Y-1569974D01*
X15219324Y-1561134D01*
X14986965Y-1328775D01*
X14978126Y-1321714D01*
X14970506Y-1317091D01*
X14968321Y-1315974D01*
X14960092Y-1312570D01*
X14957755Y-1311808D01*
X14949119Y-1309674D01*
X14946680Y-1309268D01*
X14937841Y-1308455D01*
X14348561Y-1308404D01*
X14344650Y-1307642D01*
X14341348Y-1305407D01*
X13829233Y-793242D01*
X13826896Y-789635D01*
X13826236Y-785418D01*
X13827455Y-781304D01*
X13830198Y-778002D01*
X13834110Y-776173D01*
X13838377Y-776122D01*
X13842034Y-776833D01*
X13855700Y-777748D01*
X13869365Y-776833D01*
X13882776Y-774192D01*
X13895730Y-769772D01*
X13908024Y-763727D01*
X13919403Y-756107D01*
X13929664Y-747064D01*
X13938707Y-736803D01*
X13946327Y-725424D01*
X13952372Y-713130D01*
X13956792Y-700176D01*
X13959433Y-686765D01*
X13960348Y-673100D01*
X13959433Y-659434D01*
X13956792Y-646023D01*
X13952372Y-633069D01*
X13946327Y-620776D01*
X13938707Y-609396D01*
X13929664Y-599084D01*
X13919403Y-590092D01*
X13908024Y-582472D01*
X13895730Y-576427D01*
X13882776Y-572008D01*
X13869365Y-569366D01*
X13855700Y-568452D01*
X13842034Y-569366D01*
X13828623Y-572008D01*
X13815669Y-576427D01*
X13803376Y-582472D01*
X13791996Y-590092D01*
X13781735Y-599084D01*
X13772692Y-609396D01*
X13765072Y-620776D01*
X13759027Y-633069D01*
X13754607Y-646023D01*
X13753236Y-652932D01*
X13751560Y-656844D01*
X13748359Y-659739D01*
X13744295Y-661060D01*
X13740028Y-660552D01*
X13736370Y-658368D01*
X13733932Y-654862D01*
X13704519Y-584708D01*
X13702284Y-580491D01*
X13698778Y-576021D01*
X13694206Y-572414D01*
X13689025Y-569925D01*
X13683335Y-568604D01*
X13680186Y-568452D01*
X13523518Y-568452D01*
X13517016Y-569163D01*
X13513155Y-570331D01*
X13444880Y-597001D01*
X13442442Y-597611D01*
X13435177Y-598525D01*
X13426744Y-600608D01*
X13424407Y-601370D01*
X13416178Y-604774D01*
X13413994Y-605891D01*
X13406374Y-610514D01*
X13397534Y-617575D01*
X12227052Y-1788007D01*
X12223750Y-1790242D01*
X12219838Y-1791004D01*
X11694515Y-1791004D01*
X11692737Y-1790852D01*
X11648440Y-1782927D01*
X11644579Y-1781352D01*
X11635333Y-1775206D01*
X11622938Y-1769059D01*
X11609781Y-1764639D01*
X11596217Y-1761896D01*
X11582400Y-1761032D01*
X11568582Y-1761896D01*
X11564772Y-1762607D01*
X11556034Y-1763166D01*
X11542623Y-1765807D01*
X11529669Y-1770227D01*
X11517376Y-1776272D01*
X11505996Y-1783892D01*
X11495735Y-1792935D01*
X11486692Y-1803196D01*
X11479072Y-1814575D01*
X11473027Y-1826869D01*
X11468608Y-1839823D01*
X11465966Y-1853234D01*
X11465052Y-1866900D01*
X11465966Y-1880565D01*
X11468608Y-1893976D01*
X11473027Y-1906930D01*
X11479072Y-1919224D01*
X11486692Y-1930603D01*
X11495735Y-1940864D01*
X11505996Y-1949907D01*
X11517376Y-1957527D01*
X11529669Y-1963572D01*
X11542623Y-1967992D01*
X11556034Y-1970633D01*
X11566093Y-1971395D01*
X11568582Y-1971903D01*
G37*
G36*
X14385544Y-1863445D02*
G01*
X14399768Y-1862988D01*
X14413788Y-1860702D01*
X14427403Y-1856689D01*
X14440407Y-1850898D01*
X14452549Y-1843532D01*
X14463674Y-1834692D01*
X14473529Y-1824482D01*
X14482013Y-1813102D01*
X14489023Y-1800707D01*
X14498218Y-1778304D01*
X14501825Y-1765147D01*
X14503654Y-1751634D01*
X14503654Y-1737969D01*
X14501825Y-1724456D01*
X14498218Y-1711299D01*
X14492935Y-1698752D01*
X14485975Y-1687017D01*
X14477492Y-1676298D01*
X14467687Y-1666849D01*
X14456714Y-1658772D01*
X14444776Y-1652219D01*
X14432026Y-1647291D01*
X14418767Y-1644142D01*
X14400072Y-1642211D01*
X14385544Y-1641754D01*
X14371421Y-1643125D01*
X14357553Y-1646275D01*
X14344192Y-1651203D01*
X14331594Y-1657756D01*
X14319961Y-1665884D01*
X14309445Y-1675434D01*
X14300250Y-1686255D01*
X14292478Y-1698193D01*
X14286331Y-1710994D01*
X14281861Y-1724456D01*
X14279118Y-1738426D01*
X14278203Y-1752600D01*
X14279118Y-1766773D01*
X14281861Y-1780743D01*
X14286331Y-1794205D01*
X14292478Y-1807006D01*
X14300250Y-1818944D01*
X14309445Y-1829765D01*
X14319961Y-1839315D01*
X14331594Y-1847443D01*
X14344192Y-1853996D01*
X14357553Y-1858924D01*
X14371421Y-1862074D01*
G37*
G36*
X13623544Y-1863445D02*
G01*
X13637768Y-1862988D01*
X13651788Y-1860702D01*
X13665403Y-1856689D01*
X13678407Y-1850898D01*
X13690549Y-1843532D01*
X13701674Y-1834692D01*
X13711529Y-1824482D01*
X13720013Y-1813102D01*
X13727023Y-1800707D01*
X13736218Y-1778304D01*
X13739825Y-1765147D01*
X13741654Y-1751634D01*
X13741654Y-1737969D01*
X13739825Y-1724456D01*
X13736218Y-1711299D01*
X13730935Y-1698752D01*
X13723975Y-1687017D01*
X13715492Y-1676298D01*
X13705687Y-1666849D01*
X13694714Y-1658772D01*
X13682776Y-1652219D01*
X13670026Y-1647291D01*
X13656767Y-1644142D01*
X13638072Y-1642211D01*
X13623544Y-1641754D01*
X13609421Y-1643125D01*
X13595553Y-1646275D01*
X13582192Y-1651203D01*
X13569594Y-1657756D01*
X13557961Y-1665884D01*
X13547445Y-1675434D01*
X13538250Y-1686255D01*
X13530478Y-1698193D01*
X13524331Y-1710994D01*
X13519861Y-1724456D01*
X13517118Y-1738426D01*
X13516203Y-1752600D01*
X13517118Y-1766773D01*
X13519861Y-1780743D01*
X13524331Y-1794205D01*
X13530478Y-1807006D01*
X13538250Y-1818944D01*
X13547445Y-1829765D01*
X13557961Y-1839315D01*
X13569594Y-1847443D01*
X13582192Y-1853996D01*
X13595553Y-1858924D01*
X13609421Y-1862074D01*
G37*
G36*
X13369544Y-1863445D02*
G01*
X13383768Y-1862988D01*
X13397788Y-1860702D01*
X13411403Y-1856689D01*
X13424407Y-1850898D01*
X13436549Y-1843532D01*
X13447674Y-1834692D01*
X13457529Y-1824482D01*
X13466013Y-1813102D01*
X13473023Y-1800707D01*
X13482218Y-1778304D01*
X13485825Y-1765147D01*
X13487654Y-1751634D01*
X13487654Y-1737969D01*
X13485825Y-1724456D01*
X13482218Y-1711299D01*
X13476935Y-1698752D01*
X13469975Y-1687017D01*
X13461492Y-1676298D01*
X13451687Y-1666849D01*
X13440714Y-1658772D01*
X13428776Y-1652219D01*
X13416026Y-1647291D01*
X13402767Y-1644142D01*
X13384072Y-1642211D01*
X13369544Y-1641754D01*
X13355421Y-1643125D01*
X13341553Y-1646275D01*
X13328192Y-1651203D01*
X13315594Y-1657756D01*
X13303961Y-1665884D01*
X13293445Y-1675434D01*
X13284250Y-1686255D01*
X13276478Y-1698193D01*
X13270331Y-1710994D01*
X13265861Y-1724456D01*
X13263118Y-1738426D01*
X13262203Y-1752600D01*
X13263118Y-1766773D01*
X13265861Y-1780743D01*
X13270331Y-1794205D01*
X13276478Y-1807006D01*
X13284250Y-1818944D01*
X13293445Y-1829765D01*
X13303961Y-1839315D01*
X13315594Y-1847443D01*
X13328192Y-1853996D01*
X13341553Y-1858924D01*
X13355421Y-1862074D01*
G37*
G36*
X14131544Y-1863445D02*
G01*
X14145768Y-1862988D01*
X14159788Y-1860702D01*
X14173403Y-1856689D01*
X14186407Y-1850898D01*
X14198549Y-1843532D01*
X14209674Y-1834692D01*
X14219529Y-1824482D01*
X14228013Y-1813102D01*
X14235023Y-1800707D01*
X14244218Y-1778304D01*
X14247825Y-1765147D01*
X14249654Y-1751634D01*
X14249654Y-1737969D01*
X14247825Y-1724456D01*
X14244218Y-1711299D01*
X14238935Y-1698752D01*
X14231975Y-1687017D01*
X14223492Y-1676298D01*
X14213687Y-1666849D01*
X14202714Y-1658772D01*
X14190776Y-1652219D01*
X14178026Y-1647291D01*
X14164767Y-1644142D01*
X14146072Y-1642211D01*
X14131544Y-1641754D01*
X14117421Y-1643125D01*
X14103553Y-1646275D01*
X14090192Y-1651203D01*
X14077594Y-1657756D01*
X14065961Y-1665884D01*
X14055445Y-1675434D01*
X14046250Y-1686255D01*
X14038478Y-1698193D01*
X14032331Y-1710994D01*
X14027861Y-1724456D01*
X14025118Y-1738426D01*
X14024203Y-1752600D01*
X14025118Y-1766773D01*
X14027861Y-1780743D01*
X14032331Y-1794205D01*
X14038478Y-1807006D01*
X14046250Y-1818944D01*
X14055445Y-1829765D01*
X14065961Y-1839315D01*
X14077594Y-1847443D01*
X14090192Y-1853996D01*
X14103553Y-1858924D01*
X14117421Y-1862074D01*
G37*
G36*
X13115544Y-1863445D02*
G01*
X13129768Y-1862988D01*
X13143788Y-1860702D01*
X13157403Y-1856689D01*
X13170407Y-1850898D01*
X13182549Y-1843532D01*
X13193674Y-1834692D01*
X13203529Y-1824482D01*
X13212013Y-1813102D01*
X13219023Y-1800707D01*
X13228218Y-1778304D01*
X13231825Y-1765147D01*
X13233654Y-1751634D01*
X13233654Y-1737969D01*
X13231825Y-1724456D01*
X13228218Y-1711299D01*
X13222935Y-1698752D01*
X13215975Y-1687017D01*
X13207492Y-1676298D01*
X13197687Y-1666849D01*
X13186714Y-1658772D01*
X13174776Y-1652219D01*
X13162026Y-1647291D01*
X13148767Y-1644142D01*
X13130072Y-1642211D01*
X13115544Y-1641754D01*
X13101421Y-1643125D01*
X13087553Y-1646275D01*
X13074192Y-1651203D01*
X13061594Y-1657756D01*
X13049961Y-1665884D01*
X13039445Y-1675434D01*
X13030250Y-1686255D01*
X13022478Y-1698193D01*
X13016331Y-1710994D01*
X13011861Y-1724456D01*
X13009118Y-1738426D01*
X13008203Y-1752600D01*
X13009118Y-1766773D01*
X13011861Y-1780743D01*
X13016331Y-1794205D01*
X13022478Y-1807006D01*
X13030250Y-1818944D01*
X13039445Y-1829765D01*
X13049961Y-1839315D01*
X13061594Y-1847443D01*
X13074192Y-1853996D01*
X13087553Y-1858924D01*
X13101421Y-1862074D01*
G37*
G36*
X12861544Y-1863445D02*
G01*
X12875768Y-1862988D01*
X12889788Y-1860702D01*
X12903403Y-1856689D01*
X12916408Y-1850898D01*
X12928549Y-1843532D01*
X12939674Y-1834692D01*
X12949529Y-1824482D01*
X12958013Y-1813102D01*
X12965023Y-1800707D01*
X12974218Y-1778304D01*
X12977825Y-1765147D01*
X12979654Y-1751634D01*
X12979654Y-1737969D01*
X12977825Y-1724456D01*
X12974218Y-1711299D01*
X12968935Y-1698752D01*
X12961975Y-1687017D01*
X12953492Y-1676298D01*
X12943687Y-1666849D01*
X12932714Y-1658772D01*
X12920776Y-1652219D01*
X12908026Y-1647291D01*
X12894767Y-1644142D01*
X12876072Y-1642211D01*
X12861544Y-1641754D01*
X12847421Y-1643125D01*
X12833553Y-1646275D01*
X12820192Y-1651203D01*
X12807594Y-1657756D01*
X12795961Y-1665884D01*
X12785445Y-1675434D01*
X12776250Y-1686255D01*
X12768478Y-1698193D01*
X12762331Y-1710994D01*
X12757861Y-1724456D01*
X12755118Y-1738426D01*
X12754203Y-1752600D01*
X12755118Y-1766773D01*
X12757861Y-1780743D01*
X12762331Y-1794205D01*
X12768478Y-1807006D01*
X12776250Y-1818944D01*
X12785445Y-1829765D01*
X12795961Y-1839315D01*
X12807594Y-1847443D01*
X12820192Y-1853996D01*
X12833553Y-1858924D01*
X12847421Y-1862074D01*
G37*
G36*
X13877544Y-1863445D02*
G01*
X13891768Y-1862988D01*
X13905788Y-1860702D01*
X13919403Y-1856689D01*
X13932407Y-1850898D01*
X13944549Y-1843532D01*
X13955674Y-1834692D01*
X13965529Y-1824482D01*
X13974013Y-1813102D01*
X13981023Y-1800707D01*
X13990218Y-1778304D01*
X13993825Y-1765147D01*
X13995654Y-1751634D01*
X13995654Y-1737969D01*
X13993825Y-1724456D01*
X13990218Y-1711299D01*
X13984935Y-1698752D01*
X13977975Y-1687017D01*
X13969492Y-1676298D01*
X13959687Y-1666849D01*
X13948714Y-1658772D01*
X13936776Y-1652219D01*
X13924026Y-1647291D01*
X13910767Y-1644142D01*
X13892072Y-1642211D01*
X13877544Y-1641754D01*
X13863421Y-1643125D01*
X13849553Y-1646275D01*
X13836192Y-1651203D01*
X13823594Y-1657756D01*
X13811961Y-1665884D01*
X13801445Y-1675434D01*
X13792250Y-1686255D01*
X13784478Y-1698193D01*
X13778331Y-1710994D01*
X13773861Y-1724456D01*
X13771118Y-1738426D01*
X13770203Y-1752600D01*
X13771118Y-1766773D01*
X13773861Y-1780743D01*
X13778331Y-1794205D01*
X13784478Y-1807006D01*
X13792250Y-1818944D01*
X13801445Y-1829765D01*
X13811961Y-1839315D01*
X13823594Y-1847443D01*
X13836192Y-1853996D01*
X13849553Y-1858924D01*
X13863421Y-1862074D01*
G37*
G36*
X14639544Y-1863445D02*
G01*
X14653768Y-1862988D01*
X14667788Y-1860702D01*
X14681403Y-1856689D01*
X14694407Y-1850898D01*
X14706549Y-1843532D01*
X14717674Y-1834692D01*
X14727529Y-1824482D01*
X14736013Y-1813102D01*
X14743023Y-1800707D01*
X14752218Y-1778304D01*
X14755825Y-1765147D01*
X14757654Y-1751634D01*
X14757654Y-1737969D01*
X14755825Y-1724456D01*
X14752218Y-1711299D01*
X14746935Y-1698752D01*
X14739975Y-1687017D01*
X14731492Y-1676298D01*
X14721687Y-1666849D01*
X14710714Y-1658772D01*
X14698776Y-1652219D01*
X14686026Y-1647291D01*
X14672767Y-1644142D01*
X14654072Y-1642211D01*
X14639544Y-1641754D01*
X14625421Y-1643125D01*
X14611553Y-1646275D01*
X14598192Y-1651203D01*
X14585594Y-1657756D01*
X14573961Y-1665884D01*
X14563445Y-1675434D01*
X14554250Y-1686255D01*
X14546478Y-1698193D01*
X14540331Y-1710994D01*
X14535861Y-1724456D01*
X14533118Y-1738426D01*
X14532203Y-1752600D01*
X14533118Y-1766773D01*
X14535861Y-1780743D01*
X14540331Y-1794205D01*
X14546478Y-1807006D01*
X14554250Y-1818944D01*
X14563445Y-1829765D01*
X14573961Y-1839315D01*
X14585594Y-1847443D01*
X14598192Y-1853996D01*
X14611553Y-1858924D01*
X14625421Y-1862074D01*
G37*
G36*
X14848230Y-1851914D02*
G01*
X14848230Y-1801469D01*
X14797786Y-1801469D01*
X14800478Y-1807006D01*
X14808250Y-1818944D01*
X14817445Y-1829765D01*
X14827961Y-1839315D01*
X14839594Y-1847443D01*
G37*
G36*
X14955519Y-1846580D02*
G01*
X14960549Y-1843532D01*
X14971674Y-1834692D01*
X14981529Y-1824482D01*
X14990063Y-1813001D01*
X14992451Y-1809038D01*
X14997531Y-1801469D01*
X14955519Y-1801469D01*
G37*
G36*
X9134348Y-1820824D02*
G01*
X9134348Y-1788718D01*
X9133636Y-1782419D01*
X9131757Y-1776933D01*
X9128658Y-1772056D01*
X9124543Y-1767941D01*
X9119666Y-1764842D01*
X9114180Y-1762963D01*
X9096451Y-1760982D01*
X9075420Y-1760982D01*
X9075420Y-1820570D01*
X9133078Y-1820570D01*
G37*
G36*
X8911082Y-1820570D02*
G01*
X8970670Y-1820570D01*
X8970670Y-1760982D01*
X8937548Y-1760982D01*
X8931249Y-1761693D01*
X8925763Y-1763623D01*
X8920886Y-1766671D01*
X8916771Y-1770786D01*
X8913723Y-1775663D01*
X8911793Y-1781149D01*
X8911082Y-1787448D01*
G37*
G36*
X11582400Y-1718767D02*
G01*
X11596217Y-1717903D01*
X11609781Y-1715160D01*
X11622938Y-1710740D01*
X11635333Y-1704593D01*
X11646865Y-1696923D01*
X11657279Y-1687779D01*
X11666423Y-1677365D01*
X11674094Y-1665833D01*
X11680240Y-1653438D01*
X11684660Y-1640281D01*
X11687403Y-1626717D01*
X11688267Y-1612900D01*
X11687403Y-1599082D01*
X11684660Y-1585518D01*
X11680240Y-1572361D01*
X11674094Y-1559966D01*
X11666423Y-1548434D01*
X11657279Y-1538020D01*
X11646865Y-1528876D01*
X11635333Y-1521206D01*
X11622938Y-1515059D01*
X11609781Y-1510639D01*
X11596217Y-1507896D01*
X11582400Y-1507032D01*
X11568582Y-1507896D01*
X11564670Y-1508607D01*
X11556034Y-1509166D01*
X11542623Y-1511858D01*
X11529669Y-1516227D01*
X11517376Y-1522323D01*
X11505996Y-1529892D01*
X11495735Y-1538935D01*
X11486692Y-1549196D01*
X11479072Y-1560576D01*
X11473027Y-1572869D01*
X11468658Y-1585823D01*
X11465966Y-1599234D01*
X11465052Y-1612900D01*
X11465966Y-1626565D01*
X11468658Y-1639976D01*
X11473027Y-1652981D01*
X11479072Y-1665224D01*
X11486692Y-1676603D01*
X11495735Y-1686915D01*
X11505996Y-1695907D01*
X11517376Y-1703527D01*
X11529669Y-1709572D01*
X11542623Y-1713992D01*
X11556034Y-1716684D01*
X11566245Y-1717395D01*
X11568582Y-1717903D01*
G37*
G36*
X9017000Y-1718767D02*
G01*
X9030817Y-1717903D01*
X9034475Y-1717243D01*
X9043365Y-1716684D01*
X9056776Y-1713992D01*
X9069730Y-1709572D01*
X9082024Y-1703527D01*
X9093403Y-1695907D01*
X9103715Y-1686915D01*
X9112707Y-1676603D01*
X9120327Y-1665224D01*
X9126372Y-1652981D01*
X9130792Y-1639976D01*
X9133433Y-1626565D01*
X9134348Y-1612900D01*
X9133433Y-1599234D01*
X9130792Y-1585823D01*
X9126372Y-1572869D01*
X9120327Y-1560576D01*
X9112707Y-1549196D01*
X9103715Y-1538935D01*
X9093403Y-1529892D01*
X9082024Y-1522323D01*
X9069730Y-1516227D01*
X9056776Y-1511858D01*
X9043365Y-1509166D01*
X9033408Y-1508455D01*
X9030817Y-1507896D01*
X9017000Y-1507032D01*
X9003182Y-1507896D01*
X8989618Y-1510639D01*
X8976461Y-1515059D01*
X8964066Y-1521206D01*
X8952534Y-1528876D01*
X8942120Y-1538020D01*
X8932976Y-1548434D01*
X8925306Y-1559966D01*
X8919159Y-1572361D01*
X8914739Y-1585518D01*
X8911996Y-1599082D01*
X8911132Y-1612900D01*
X8911996Y-1626717D01*
X8914739Y-1640281D01*
X8919159Y-1653438D01*
X8925306Y-1665833D01*
X8932976Y-1677365D01*
X8942120Y-1687779D01*
X8952534Y-1696923D01*
X8964066Y-1704593D01*
X8976461Y-1710740D01*
X8989618Y-1715160D01*
X9003182Y-1717903D01*
G37*
G36*
X14799868Y-1699310D02*
G01*
X14800884Y-1699056D01*
X14848230Y-1699056D01*
X14848230Y-1653286D01*
X14839594Y-1657756D01*
X14827961Y-1665884D01*
X14817445Y-1675434D01*
X14808250Y-1686255D01*
G37*
G36*
X14955519Y-1699056D02*
G01*
X15003678Y-1699056D01*
X15000427Y-1692503D01*
X14992807Y-1681124D01*
X14983764Y-1670812D01*
X14973503Y-1661769D01*
X14962124Y-1654200D01*
X14955519Y-1650949D01*
G37*
G36*
X11582400Y-1464767D02*
G01*
X11596217Y-1463903D01*
X11609781Y-1461160D01*
X11622938Y-1456740D01*
X11635333Y-1450594D01*
X11646865Y-1442923D01*
X11657279Y-1433779D01*
X11666423Y-1423365D01*
X11674094Y-1411833D01*
X11680240Y-1399438D01*
X11684660Y-1386281D01*
X11687403Y-1372717D01*
X11688267Y-1358900D01*
X11687403Y-1345082D01*
X11684660Y-1331518D01*
X11680240Y-1318361D01*
X11674094Y-1305966D01*
X11666423Y-1294434D01*
X11657279Y-1284020D01*
X11646865Y-1274876D01*
X11635333Y-1267206D01*
X11622938Y-1261059D01*
X11609781Y-1256639D01*
X11596217Y-1253896D01*
X11582400Y-1253032D01*
X11568582Y-1253896D01*
X11564670Y-1254607D01*
X11556034Y-1255166D01*
X11542623Y-1257858D01*
X11529669Y-1262227D01*
X11517376Y-1268323D01*
X11505996Y-1275892D01*
X11495735Y-1284935D01*
X11486692Y-1295196D01*
X11479072Y-1306576D01*
X11473027Y-1318869D01*
X11468658Y-1331823D01*
X11465966Y-1345234D01*
X11465052Y-1358900D01*
X11465966Y-1372565D01*
X11468658Y-1385976D01*
X11473027Y-1398981D01*
X11479072Y-1411224D01*
X11486692Y-1422603D01*
X11495735Y-1432915D01*
X11505996Y-1441907D01*
X11517376Y-1449527D01*
X11529669Y-1455572D01*
X11542623Y-1459992D01*
X11556034Y-1462684D01*
X11566245Y-1463395D01*
X11568582Y-1463903D01*
G37*
G36*
X9017000Y-1464767D02*
G01*
X9030817Y-1463903D01*
X9034475Y-1463243D01*
X9043365Y-1462684D01*
X9056776Y-1459992D01*
X9069730Y-1455572D01*
X9082024Y-1449527D01*
X9093403Y-1441907D01*
X9103715Y-1432915D01*
X9112707Y-1422603D01*
X9120327Y-1411224D01*
X9126372Y-1398981D01*
X9130792Y-1385976D01*
X9133433Y-1372565D01*
X9134348Y-1358900D01*
X9133433Y-1345234D01*
X9130792Y-1331823D01*
X9126372Y-1318869D01*
X9120327Y-1306576D01*
X9112707Y-1295196D01*
X9103715Y-1284935D01*
X9093403Y-1275892D01*
X9082024Y-1268323D01*
X9069730Y-1262227D01*
X9056776Y-1257858D01*
X9043365Y-1255166D01*
X9033408Y-1254455D01*
X9030817Y-1253896D01*
X9017000Y-1253032D01*
X9003182Y-1253896D01*
X8989618Y-1256639D01*
X8976461Y-1261059D01*
X8964066Y-1267206D01*
X8952534Y-1274876D01*
X8942120Y-1284020D01*
X8932976Y-1294434D01*
X8925306Y-1305966D01*
X8919159Y-1318361D01*
X8914739Y-1331518D01*
X8911996Y-1345082D01*
X8911132Y-1358900D01*
X8911996Y-1372717D01*
X8914739Y-1386281D01*
X8919159Y-1399438D01*
X8925306Y-1411833D01*
X8932976Y-1423365D01*
X8942120Y-1433779D01*
X8952534Y-1442923D01*
X8964066Y-1450594D01*
X8976461Y-1456740D01*
X8989618Y-1461160D01*
X9003182Y-1463903D01*
G37*
G36*
X11582400Y-1210767D02*
G01*
X11596217Y-1209903D01*
X11609781Y-1207160D01*
X11622938Y-1202740D01*
X11635333Y-1196594D01*
X11646865Y-1188923D01*
X11657279Y-1179779D01*
X11666423Y-1169365D01*
X11674094Y-1157833D01*
X11680240Y-1145438D01*
X11684660Y-1132281D01*
X11687403Y-1118717D01*
X11688267Y-1104900D01*
X11687403Y-1091082D01*
X11684660Y-1077518D01*
X11680240Y-1064361D01*
X11674094Y-1051966D01*
X11666423Y-1040434D01*
X11657279Y-1030020D01*
X11646865Y-1020876D01*
X11635333Y-1013206D01*
X11622938Y-1007059D01*
X11609781Y-1002639D01*
X11596217Y-999896D01*
X11582400Y-999032D01*
X11568582Y-999896D01*
X11564670Y-1000607D01*
X11556034Y-1001166D01*
X11542623Y-1003858D01*
X11529669Y-1008227D01*
X11517376Y-1014323D01*
X11505996Y-1021892D01*
X11495735Y-1030935D01*
X11486692Y-1041196D01*
X11479072Y-1052576D01*
X11473027Y-1064869D01*
X11468658Y-1077823D01*
X11465966Y-1091234D01*
X11465052Y-1104900D01*
X11465966Y-1118565D01*
X11468658Y-1131976D01*
X11473027Y-1144981D01*
X11479072Y-1157224D01*
X11486692Y-1168603D01*
X11495735Y-1178915D01*
X11505996Y-1187907D01*
X11517376Y-1195527D01*
X11529669Y-1201572D01*
X11542623Y-1205992D01*
X11556034Y-1208684D01*
X11566245Y-1209395D01*
X11568582Y-1209903D01*
G37*
G36*
X9017000Y-1210767D02*
G01*
X9030817Y-1209903D01*
X9034475Y-1209243D01*
X9043365Y-1208684D01*
X9056776Y-1205992D01*
X9069730Y-1201572D01*
X9082024Y-1195527D01*
X9093403Y-1187907D01*
X9103715Y-1178915D01*
X9112707Y-1168603D01*
X9120327Y-1157224D01*
X9126372Y-1144981D01*
X9130792Y-1131976D01*
X9133433Y-1118565D01*
X9134348Y-1104900D01*
X9133433Y-1091234D01*
X9130792Y-1077823D01*
X9126372Y-1064869D01*
X9120327Y-1052576D01*
X9112707Y-1041196D01*
X9103715Y-1030935D01*
X9093403Y-1021892D01*
X9082024Y-1014323D01*
X9069730Y-1008227D01*
X9056776Y-1003858D01*
X9043365Y-1001166D01*
X9033408Y-1000455D01*
X9030817Y-999896D01*
X9017000Y-999032D01*
X9003182Y-999896D01*
X8989618Y-1002639D01*
X8976461Y-1007059D01*
X8964066Y-1013206D01*
X8952534Y-1020876D01*
X8942120Y-1030020D01*
X8932976Y-1040434D01*
X8925306Y-1051966D01*
X8919159Y-1064361D01*
X8914739Y-1077518D01*
X8911996Y-1091082D01*
X8911132Y-1104900D01*
X8911996Y-1118717D01*
X8914739Y-1132281D01*
X8919159Y-1145438D01*
X8925306Y-1157833D01*
X8932976Y-1169365D01*
X8942120Y-1179779D01*
X8952534Y-1188923D01*
X8964066Y-1196594D01*
X8976461Y-1202740D01*
X8989618Y-1207160D01*
X9003182Y-1209903D01*
G37*
G36*
X11582400Y-956767D02*
G01*
X11596217Y-955903D01*
X11609781Y-953160D01*
X11622938Y-948740D01*
X11635333Y-942594D01*
X11646865Y-934923D01*
X11657279Y-925779D01*
X11666423Y-915365D01*
X11674094Y-903833D01*
X11680240Y-891438D01*
X11684660Y-878281D01*
X11687403Y-864717D01*
X11688267Y-850900D01*
X11687403Y-837082D01*
X11684660Y-823518D01*
X11680240Y-810361D01*
X11674094Y-797966D01*
X11666423Y-786434D01*
X11657279Y-776020D01*
X11646865Y-766876D01*
X11635333Y-759206D01*
X11622938Y-753059D01*
X11609781Y-748639D01*
X11596217Y-745896D01*
X11582400Y-745032D01*
X11568582Y-745896D01*
X11564670Y-746607D01*
X11556034Y-747166D01*
X11542623Y-749858D01*
X11529669Y-754227D01*
X11517376Y-760323D01*
X11505996Y-767892D01*
X11495735Y-776935D01*
X11486692Y-787196D01*
X11479072Y-798576D01*
X11473027Y-810869D01*
X11468658Y-823823D01*
X11465966Y-837234D01*
X11465052Y-850900D01*
X11465966Y-864565D01*
X11468658Y-877976D01*
X11473027Y-890981D01*
X11479072Y-903224D01*
X11486692Y-914603D01*
X11495735Y-924915D01*
X11505996Y-933907D01*
X11517376Y-941527D01*
X11529669Y-947572D01*
X11542623Y-951992D01*
X11556034Y-954684D01*
X11566245Y-955395D01*
X11568582Y-955903D01*
G37*
G36*
X9017000Y-956767D02*
G01*
X9030817Y-955903D01*
X9034475Y-955243D01*
X9043365Y-954684D01*
X9056776Y-951992D01*
X9069730Y-947572D01*
X9082024Y-941527D01*
X9093403Y-933907D01*
X9103715Y-924915D01*
X9112707Y-914603D01*
X9120327Y-903224D01*
X9126372Y-890981D01*
X9130792Y-877976D01*
X9133433Y-864565D01*
X9134348Y-850900D01*
X9133433Y-837234D01*
X9130792Y-823823D01*
X9126372Y-810869D01*
X9120327Y-798576D01*
X9112707Y-787196D01*
X9103715Y-776935D01*
X9093403Y-767892D01*
X9082024Y-760323D01*
X9069730Y-754227D01*
X9056776Y-749858D01*
X9043365Y-747166D01*
X9033408Y-746455D01*
X9030817Y-745896D01*
X9017000Y-745032D01*
X9003182Y-745896D01*
X8989618Y-748639D01*
X8976461Y-753059D01*
X8964066Y-759206D01*
X8952534Y-766876D01*
X8942120Y-776020D01*
X8932976Y-786434D01*
X8925306Y-797966D01*
X8919159Y-810361D01*
X8914739Y-823518D01*
X8911996Y-837082D01*
X8911132Y-850900D01*
X8911996Y-864717D01*
X8914739Y-878281D01*
X8919159Y-891438D01*
X8925306Y-903833D01*
X8932976Y-915365D01*
X8942120Y-925779D01*
X8952534Y-934923D01*
X8964066Y-942594D01*
X8976461Y-948740D01*
X8989618Y-953160D01*
X9003182Y-955903D01*
G37*
G36*
X7493000Y-917448D02*
G01*
X7500112Y-917041D01*
X7505700Y-917448D01*
X7519365Y-916533D01*
X7532776Y-913841D01*
X7545730Y-909472D01*
X7558024Y-903427D01*
X7569403Y-895807D01*
X7579664Y-886764D01*
X7588707Y-876503D01*
X7596327Y-865124D01*
X7602372Y-852830D01*
X7606741Y-839876D01*
X7609433Y-826465D01*
X7610348Y-812800D01*
X7609433Y-799134D01*
X7606741Y-785723D01*
X7602372Y-772769D01*
X7596327Y-760476D01*
X7588707Y-749096D01*
X7579664Y-738835D01*
X7569403Y-729792D01*
X7558024Y-722172D01*
X7545730Y-716127D01*
X7532776Y-711758D01*
X7519365Y-709066D01*
X7505700Y-708152D01*
X7498740Y-708558D01*
X7493000Y-708152D01*
X7479334Y-709066D01*
X7465923Y-711708D01*
X7452969Y-716127D01*
X7440675Y-722172D01*
X7429296Y-729792D01*
X7419035Y-738835D01*
X7409992Y-749096D01*
X7402372Y-760476D01*
X7396327Y-772769D01*
X7391908Y-785723D01*
X7389266Y-799134D01*
X7388352Y-812800D01*
X7389266Y-826465D01*
X7391908Y-839876D01*
X7396327Y-852830D01*
X7402372Y-865124D01*
X7409992Y-876503D01*
X7419035Y-886764D01*
X7429296Y-895807D01*
X7440675Y-903427D01*
X7452969Y-909472D01*
X7465923Y-913892D01*
X7479334Y-916533D01*
G37*
G36*
X6398818Y-917448D02*
G01*
X6567881Y-917448D01*
X6574180Y-916736D01*
X6579666Y-914806D01*
X6584543Y-911758D01*
X6588658Y-907643D01*
X6591706Y-902766D01*
X6593636Y-897280D01*
X6594348Y-890981D01*
X6594348Y-734618D01*
X6593636Y-728319D01*
X6591706Y-722833D01*
X6588658Y-717956D01*
X6584543Y-713841D01*
X6579666Y-710793D01*
X6574180Y-708863D01*
X6567881Y-708152D01*
X6398818Y-708152D01*
X6392519Y-708863D01*
X6387033Y-710742D01*
X6382156Y-713841D01*
X6378041Y-717956D01*
X6374942Y-722833D01*
X6373063Y-728319D01*
X6372352Y-734618D01*
X6372352Y-890981D01*
X6373063Y-897280D01*
X6374942Y-902766D01*
X6378041Y-907643D01*
X6382156Y-911758D01*
X6387033Y-914857D01*
X6392519Y-916736D01*
G37*
G36*
X6985000Y-917448D02*
G01*
X6992112Y-917041D01*
X6997700Y-917448D01*
X7011365Y-916533D01*
X7024776Y-913841D01*
X7037730Y-909472D01*
X7050024Y-903427D01*
X7061403Y-895807D01*
X7071664Y-886764D01*
X7080707Y-876503D01*
X7088327Y-865124D01*
X7094372Y-852830D01*
X7098741Y-839876D01*
X7101484Y-826262D01*
X7107174Y-761288D01*
X7108088Y-757885D01*
X7110120Y-754989D01*
X8496604Y631494D01*
X8499906Y633730D01*
X8503818Y634492D01*
X8894876Y634492D01*
X8898382Y633882D01*
X8901430Y632104D01*
X8936329Y602640D01*
X8938869Y599389D01*
X8939936Y595426D01*
X8939326Y591362D01*
X8937142Y587908D01*
X8933789Y585520D01*
X8929776Y584708D01*
X8611108Y584708D01*
X8603081Y583895D01*
X8595868Y581710D01*
X8589162Y578154D01*
X8582964Y573024D01*
X7309510Y-700379D01*
X7306614Y-702411D01*
X7303211Y-703326D01*
X7247991Y-708101D01*
X7239355Y-708152D01*
X7225334Y-709066D01*
X7211923Y-711708D01*
X7198969Y-716127D01*
X7186675Y-722172D01*
X7175296Y-729792D01*
X7165035Y-738835D01*
X7155992Y-749096D01*
X7148372Y-760476D01*
X7142327Y-772769D01*
X7137908Y-785723D01*
X7135266Y-799134D01*
X7134352Y-812800D01*
X7135266Y-826465D01*
X7137908Y-839876D01*
X7142327Y-852830D01*
X7148372Y-865124D01*
X7155992Y-876503D01*
X7165035Y-886764D01*
X7175296Y-895807D01*
X7186675Y-903427D01*
X7198969Y-909472D01*
X7211923Y-913892D01*
X7225334Y-916533D01*
X7239000Y-917448D01*
X7246112Y-917041D01*
X7251700Y-917448D01*
X7265365Y-916533D01*
X7278776Y-913841D01*
X7291730Y-909472D01*
X7304024Y-903427D01*
X7315403Y-895807D01*
X7325664Y-886764D01*
X7334707Y-876503D01*
X7342327Y-865124D01*
X7348372Y-852830D01*
X7352741Y-839876D01*
X7355484Y-826262D01*
X7361174Y-761288D01*
X7362088Y-757885D01*
X7364120Y-754989D01*
X8623604Y504494D01*
X8626906Y506730D01*
X8630818Y507492D01*
X8931554Y507492D01*
X8935364Y506780D01*
X8938564Y504647D01*
X8940800Y501548D01*
X8941714Y497789D01*
X8941155Y493979D01*
X8939174Y490626D01*
X8932976Y483565D01*
X8925306Y472033D01*
X8919159Y459638D01*
X8914739Y446481D01*
X8911996Y432917D01*
X8911132Y419100D01*
X8911996Y405282D01*
X8914739Y391718D01*
X8919159Y378561D01*
X8925306Y366166D01*
X8932976Y354634D01*
X8942120Y344220D01*
X8952534Y335076D01*
X8964066Y327406D01*
X8976461Y321259D01*
X8989618Y316839D01*
X9003182Y314096D01*
X9017000Y313232D01*
X9030817Y314096D01*
X9034475Y314756D01*
X9043365Y315315D01*
X9056776Y318008D01*
X9069730Y322427D01*
X9082024Y328472D01*
X9093403Y336092D01*
X9103715Y345084D01*
X9112707Y355396D01*
X9120327Y366776D01*
X9126372Y379018D01*
X9130792Y392023D01*
X9133433Y405434D01*
X9134348Y419100D01*
X9133433Y432765D01*
X9130792Y446176D01*
X9126372Y459130D01*
X9120327Y471424D01*
X9112707Y482803D01*
X9103715Y493064D01*
X9095689Y500126D01*
X9093098Y503631D01*
X9092234Y507898D01*
X9093200Y512165D01*
X9095943Y515620D01*
X9100261Y519176D01*
X9163913Y582828D01*
X9169044Y589026D01*
X9172600Y595731D01*
X9174784Y602945D01*
X9175597Y610971D01*
X9175597Y819353D01*
X9174784Y827379D01*
X9172600Y834593D01*
X9169044Y841248D01*
X9163913Y847496D01*
X9142120Y869289D01*
X9140088Y872185D01*
X9139174Y875588D01*
X9133484Y940562D01*
X9130792Y954176D01*
X9126372Y967130D01*
X9120327Y979424D01*
X9112707Y990803D01*
X9103715Y1001064D01*
X9093403Y1010107D01*
X9082024Y1017676D01*
X9069730Y1023772D01*
X9056776Y1028141D01*
X9043365Y1030833D01*
X9033408Y1031544D01*
X9030817Y1032103D01*
X9017000Y1032967D01*
X9003182Y1032103D01*
X8989618Y1029360D01*
X8976461Y1024940D01*
X8964066Y1018794D01*
X8952534Y1011123D01*
X8942120Y1001979D01*
X8932976Y991565D01*
X8925306Y980033D01*
X8919159Y967638D01*
X8914739Y954481D01*
X8911996Y940917D01*
X8911132Y927100D01*
X8911996Y913282D01*
X8914739Y899718D01*
X8919159Y886561D01*
X8925306Y874166D01*
X8932976Y862634D01*
X8942120Y852220D01*
X8952534Y843076D01*
X8964066Y835406D01*
X8976461Y829259D01*
X8989618Y824839D01*
X9003182Y822096D01*
X9017355Y821182D01*
X9040622Y821131D01*
X9081211Y817625D01*
X9084614Y816711D01*
X9087510Y814679D01*
X9095384Y806805D01*
X9097568Y803503D01*
X9098381Y799642D01*
X9098381Y771804D01*
X9097416Y767537D01*
X9094774Y764082D01*
X9090964Y762000D01*
X9086596Y761746D01*
X9082024Y763676D01*
X9069730Y769772D01*
X9056776Y774141D01*
X9043365Y776833D01*
X9033408Y777544D01*
X9030817Y778103D01*
X9017000Y778967D01*
X9003182Y778103D01*
X8989618Y775360D01*
X8976461Y770940D01*
X8964066Y764794D01*
X8952534Y757123D01*
X8901430Y714095D01*
X8898382Y712317D01*
X8894876Y711708D01*
X8484108Y711708D01*
X8476081Y710895D01*
X8468868Y708710D01*
X8462162Y705154D01*
X8455964Y700024D01*
X7055510Y-700379D01*
X7052614Y-702411D01*
X7049211Y-703326D01*
X6993991Y-708101D01*
X6985355Y-708152D01*
X6971334Y-709066D01*
X6957923Y-711708D01*
X6944969Y-716127D01*
X6932675Y-722172D01*
X6921296Y-729792D01*
X6911035Y-738835D01*
X6901992Y-749096D01*
X6894372Y-760476D01*
X6888327Y-772769D01*
X6883908Y-785723D01*
X6881266Y-799134D01*
X6880352Y-812800D01*
X6881266Y-826465D01*
X6883908Y-839876D01*
X6888327Y-852830D01*
X6894372Y-865124D01*
X6901992Y-876503D01*
X6911035Y-886764D01*
X6921296Y-895807D01*
X6932675Y-903427D01*
X6944969Y-909472D01*
X6957923Y-913892D01*
X6971334Y-916533D01*
G37*
G36*
X6789420Y-906678D02*
G01*
X6796024Y-903427D01*
X6807403Y-895807D01*
X6817664Y-886764D01*
X6826707Y-876503D01*
X6834327Y-865124D01*
X6837578Y-858519D01*
X6789420Y-858519D01*
G37*
G36*
X6685280Y-906678D02*
G01*
X6685280Y-858519D01*
X6637121Y-858519D01*
X6640372Y-865124D01*
X6647992Y-876503D01*
X6657035Y-886764D01*
X6667296Y-895807D01*
X6678675Y-903427D01*
G37*
G36*
X12957302Y-795274D02*
G01*
X12976098Y-795274D01*
X12994843Y-793343D01*
X13013283Y-789584D01*
X13031266Y-783945D01*
X13048589Y-776478D01*
X13065048Y-767334D01*
X13080492Y-756615D01*
X13094766Y-744321D01*
X13107771Y-730707D01*
X13119252Y-715772D01*
X13129260Y-699820D01*
X13137540Y-682904D01*
X13144093Y-665226D01*
X13148767Y-647039D01*
X13151662Y-628396D01*
X13152577Y-609600D01*
X13151662Y-590804D01*
X13148767Y-572160D01*
X13144093Y-553974D01*
X13137540Y-536295D01*
X13129260Y-519379D01*
X13119252Y-503428D01*
X13107771Y-488492D01*
X13094766Y-474878D01*
X13080492Y-462584D01*
X13065048Y-451866D01*
X13048589Y-442722D01*
X13031266Y-435254D01*
X13013283Y-429615D01*
X12994843Y-425856D01*
X12976098Y-423926D01*
X12957302Y-423926D01*
X12938556Y-425856D01*
X12920116Y-429615D01*
X12902133Y-435254D01*
X12884810Y-442722D01*
X12868351Y-451866D01*
X12852908Y-462584D01*
X12838633Y-474878D01*
X12825628Y-488492D01*
X12814147Y-503428D01*
X12804140Y-519379D01*
X12795859Y-536295D01*
X12789306Y-553974D01*
X12784632Y-572160D01*
X12781737Y-590804D01*
X12780822Y-609600D01*
X12781737Y-628396D01*
X12784632Y-647039D01*
X12789306Y-665226D01*
X12795859Y-682904D01*
X12804140Y-699820D01*
X12814147Y-715772D01*
X12825628Y-730707D01*
X12838633Y-744321D01*
X12852908Y-756615D01*
X12868351Y-767334D01*
X12884810Y-776478D01*
X12902133Y-783945D01*
X12920116Y-789584D01*
X12938556Y-793343D01*
G37*
G36*
X15243301Y-795274D02*
G01*
X15262098Y-795274D01*
X15280843Y-793343D01*
X15299283Y-789584D01*
X15317266Y-783945D01*
X15334589Y-776478D01*
X15351048Y-767334D01*
X15366492Y-756615D01*
X15380766Y-744321D01*
X15393771Y-730707D01*
X15405252Y-715772D01*
X15415260Y-699820D01*
X15423540Y-682904D01*
X15430093Y-665226D01*
X15434767Y-647039D01*
X15437662Y-628396D01*
X15438577Y-609600D01*
X15437662Y-590804D01*
X15434767Y-572160D01*
X15430093Y-553974D01*
X15423540Y-536295D01*
X15415260Y-519379D01*
X15405252Y-503428D01*
X15393771Y-488492D01*
X15380766Y-474878D01*
X15366492Y-462584D01*
X15351048Y-451866D01*
X15334589Y-442722D01*
X15317266Y-435254D01*
X15299283Y-429615D01*
X15280843Y-425856D01*
X15262098Y-423926D01*
X15243301Y-423926D01*
X15224556Y-425856D01*
X15206116Y-429615D01*
X15188133Y-435254D01*
X15170810Y-442722D01*
X15154351Y-451866D01*
X15138907Y-462584D01*
X15124633Y-474878D01*
X15111628Y-488492D01*
X15100147Y-503428D01*
X15090140Y-519379D01*
X15081859Y-536295D01*
X15075306Y-553974D01*
X15070632Y-572160D01*
X15067737Y-590804D01*
X15066822Y-609600D01*
X15067737Y-628396D01*
X15070632Y-647039D01*
X15075306Y-665226D01*
X15081859Y-682904D01*
X15090140Y-699820D01*
X15100147Y-715772D01*
X15111628Y-730707D01*
X15124633Y-744321D01*
X15138907Y-756615D01*
X15154351Y-767334D01*
X15170810Y-776478D01*
X15188133Y-783945D01*
X15206116Y-789584D01*
X15224556Y-793343D01*
G37*
G36*
X14109700Y-777748D02*
G01*
X14123365Y-776833D01*
X14136776Y-774192D01*
X14149730Y-769772D01*
X14162024Y-763727D01*
X14173403Y-756107D01*
X14183664Y-747064D01*
X14192707Y-736803D01*
X14200327Y-725424D01*
X14206372Y-713130D01*
X14210792Y-700176D01*
X14213433Y-686765D01*
X14214348Y-673100D01*
X14213433Y-659434D01*
X14210792Y-646023D01*
X14206372Y-633069D01*
X14200327Y-620776D01*
X14192707Y-609396D01*
X14183664Y-599084D01*
X14173403Y-590092D01*
X14162024Y-582472D01*
X14149730Y-576427D01*
X14136776Y-572008D01*
X14123365Y-569366D01*
X14109700Y-568452D01*
X14096034Y-569366D01*
X14082623Y-572008D01*
X14069669Y-576427D01*
X14057376Y-582472D01*
X14045996Y-590092D01*
X14035735Y-599084D01*
X14026692Y-609396D01*
X14019072Y-620776D01*
X14013027Y-633069D01*
X14008607Y-646023D01*
X14005966Y-659434D01*
X14005051Y-673100D01*
X14005966Y-686765D01*
X14008607Y-700176D01*
X14013027Y-713130D01*
X14019072Y-725424D01*
X14026692Y-736803D01*
X14035735Y-747064D01*
X14045996Y-756107D01*
X14057376Y-763727D01*
X14069669Y-769772D01*
X14082623Y-774192D01*
X14096034Y-776833D01*
G37*
G36*
X14363700Y-777748D02*
G01*
X14377365Y-776833D01*
X14390776Y-774192D01*
X14403730Y-769772D01*
X14416024Y-763727D01*
X14427403Y-756107D01*
X14437664Y-747064D01*
X14446707Y-736803D01*
X14454327Y-725424D01*
X14460372Y-713130D01*
X14464792Y-700176D01*
X14467433Y-686765D01*
X14468348Y-673100D01*
X14467433Y-659434D01*
X14464792Y-646023D01*
X14460372Y-633069D01*
X14454327Y-620776D01*
X14446605Y-609244D01*
X14404695Y-559257D01*
X14402917Y-556209D01*
X14402307Y-552754D01*
X14402307Y-279908D01*
X14401495Y-271881D01*
X14399310Y-264668D01*
X14395754Y-257962D01*
X14390624Y-251764D01*
X13184835Y954024D01*
X13178637Y959154D01*
X13171932Y962710D01*
X13164718Y964895D01*
X13156692Y965708D01*
X13002615Y965708D01*
X12998450Y966571D01*
X12995046Y969060D01*
X12992912Y972769D01*
X12992506Y976985D01*
X12993827Y980998D01*
X12996672Y984097D01*
X13000532Y985824D01*
X13013283Y988415D01*
X13031266Y994054D01*
X13048589Y1001521D01*
X13065048Y1010666D01*
X13080492Y1021384D01*
X13094766Y1033678D01*
X13107771Y1047292D01*
X13119252Y1062228D01*
X13129260Y1078179D01*
X13137540Y1095095D01*
X13144093Y1112774D01*
X13148767Y1130960D01*
X13151662Y1149604D01*
X13152577Y1168400D01*
X13151662Y1187196D01*
X13148767Y1205839D01*
X13144093Y1224026D01*
X13137540Y1241704D01*
X13129260Y1258620D01*
X13119252Y1274572D01*
X13107771Y1289507D01*
X13094766Y1303121D01*
X13080492Y1315415D01*
X13065048Y1326134D01*
X13048589Y1335278D01*
X13031266Y1342745D01*
X13013283Y1348384D01*
X12994843Y1352143D01*
X12976098Y1354074D01*
X12957302Y1354074D01*
X12938556Y1352143D01*
X12920116Y1348384D01*
X12902133Y1342745D01*
X12884810Y1335278D01*
X12868351Y1326134D01*
X12852908Y1315415D01*
X12838633Y1303121D01*
X12825628Y1289507D01*
X12814147Y1274572D01*
X12804140Y1258620D01*
X12795859Y1241704D01*
X12789306Y1224026D01*
X12784632Y1205839D01*
X12781737Y1187196D01*
X12780822Y1168400D01*
X12781737Y1149604D01*
X12784632Y1130960D01*
X12789306Y1112774D01*
X12795859Y1095095D01*
X12804140Y1078179D01*
X12814147Y1062228D01*
X12825628Y1047292D01*
X12838633Y1033678D01*
X12852908Y1021384D01*
X12868351Y1010666D01*
X12884810Y1001521D01*
X12902133Y994054D01*
X12920116Y988415D01*
X12932867Y985824D01*
X12936728Y984097D01*
X12939572Y980998D01*
X12940893Y976985D01*
X12940487Y972769D01*
X12938353Y969060D01*
X12934950Y966571D01*
X12930784Y965708D01*
X11704523Y965708D01*
X11701018Y966317D01*
X11697970Y968095D01*
X11647017Y1011021D01*
X11635333Y1018794D01*
X11622938Y1024940D01*
X11609781Y1029360D01*
X11596217Y1032103D01*
X11582400Y1032967D01*
X11568582Y1032103D01*
X11564670Y1031392D01*
X11556034Y1030833D01*
X11542623Y1028141D01*
X11529669Y1023772D01*
X11517376Y1017676D01*
X11505996Y1010107D01*
X11495735Y1001064D01*
X11486692Y990803D01*
X11479072Y979424D01*
X11473027Y967130D01*
X11468658Y954176D01*
X11465966Y940765D01*
X11465052Y927100D01*
X11465966Y913434D01*
X11468658Y900023D01*
X11473027Y887018D01*
X11479072Y874776D01*
X11486692Y863396D01*
X11495735Y853084D01*
X11505996Y844092D01*
X11517376Y836472D01*
X11529669Y830427D01*
X11542623Y826008D01*
X11556034Y823315D01*
X11566245Y822604D01*
X11568582Y822096D01*
X11582400Y821232D01*
X11596217Y822096D01*
X11609781Y824839D01*
X11622938Y829259D01*
X11635333Y835406D01*
X11646865Y843076D01*
X11697970Y886104D01*
X11701018Y887882D01*
X11704523Y888492D01*
X13136981Y888492D01*
X13140893Y887730D01*
X13144195Y885494D01*
X14322094Y-292404D01*
X14324330Y-295706D01*
X14325092Y-299618D01*
X14325092Y-552754D01*
X14324482Y-556209D01*
X14322704Y-559257D01*
X14280794Y-609244D01*
X14273072Y-620776D01*
X14267027Y-633069D01*
X14262607Y-646023D01*
X14259966Y-659434D01*
X14259051Y-673100D01*
X14259966Y-686765D01*
X14262607Y-700176D01*
X14267027Y-713130D01*
X14273072Y-725424D01*
X14280692Y-736803D01*
X14289735Y-747064D01*
X14299996Y-756107D01*
X14311376Y-763727D01*
X14323669Y-769772D01*
X14336623Y-774192D01*
X14350034Y-776833D01*
G37*
G36*
X6789420Y-767080D02*
G01*
X6837578Y-767080D01*
X6834327Y-760476D01*
X6826707Y-749096D01*
X6817664Y-738835D01*
X6807403Y-729792D01*
X6796024Y-722172D01*
X6789420Y-718921D01*
G37*
G36*
X6637121Y-767080D02*
G01*
X6685280Y-767080D01*
X6685280Y-718921D01*
X6678675Y-722172D01*
X6667296Y-729792D01*
X6657035Y-738835D01*
X6647992Y-749096D01*
X6640372Y-760476D01*
G37*
G36*
X14663419Y-766978D02*
G01*
X14670024Y-763727D01*
X14681403Y-756107D01*
X14691664Y-747064D01*
X14700707Y-736803D01*
X14708327Y-725424D01*
X14711578Y-718820D01*
X14663419Y-718820D01*
G37*
G36*
X14571980Y-766978D02*
G01*
X14571980Y-718820D01*
X14523821Y-718820D01*
X14527072Y-725424D01*
X14534692Y-736803D01*
X14543735Y-747064D01*
X14553996Y-756107D01*
X14565376Y-763727D01*
G37*
G36*
X11582400Y-702767D02*
G01*
X11596217Y-701903D01*
X11609781Y-699160D01*
X11622938Y-694740D01*
X11635333Y-688594D01*
X11646865Y-680923D01*
X11657279Y-671779D01*
X11666423Y-661365D01*
X11674094Y-649833D01*
X11680240Y-637438D01*
X11684660Y-624281D01*
X11687403Y-610717D01*
X11688267Y-596900D01*
X11687403Y-583082D01*
X11684660Y-569518D01*
X11680240Y-556361D01*
X11674094Y-543966D01*
X11666423Y-532434D01*
X11657279Y-522020D01*
X11646865Y-512876D01*
X11635333Y-505206D01*
X11622938Y-499059D01*
X11609781Y-494639D01*
X11596217Y-491896D01*
X11582400Y-491032D01*
X11568582Y-491896D01*
X11564670Y-492607D01*
X11556034Y-493166D01*
X11542623Y-495858D01*
X11529669Y-500227D01*
X11517376Y-506323D01*
X11505996Y-513892D01*
X11495735Y-522935D01*
X11486692Y-533196D01*
X11479072Y-544576D01*
X11473027Y-556869D01*
X11468658Y-569823D01*
X11465966Y-583234D01*
X11465052Y-596900D01*
X11465966Y-610565D01*
X11468658Y-623976D01*
X11473027Y-636981D01*
X11479072Y-649224D01*
X11486692Y-660603D01*
X11495735Y-670915D01*
X11505996Y-679907D01*
X11517376Y-687527D01*
X11529669Y-693572D01*
X11542623Y-697992D01*
X11556034Y-700684D01*
X11566245Y-701395D01*
X11568582Y-701903D01*
G37*
G36*
X9017000Y-702767D02*
G01*
X9030817Y-701903D01*
X9034475Y-701243D01*
X9043365Y-700684D01*
X9056776Y-697992D01*
X9069730Y-693572D01*
X9082024Y-687527D01*
X9093403Y-679907D01*
X9103715Y-670915D01*
X9112707Y-660603D01*
X9120327Y-649224D01*
X9126372Y-636981D01*
X9130792Y-623976D01*
X9133433Y-610565D01*
X9134348Y-596900D01*
X9133433Y-583234D01*
X9130792Y-569823D01*
X9126372Y-556869D01*
X9120327Y-544576D01*
X9112707Y-533196D01*
X9103715Y-522935D01*
X9093403Y-513892D01*
X9082024Y-506323D01*
X9069730Y-500227D01*
X9056776Y-495858D01*
X9043365Y-493166D01*
X9033408Y-492455D01*
X9030817Y-491896D01*
X9017000Y-491032D01*
X9003182Y-491896D01*
X8989618Y-494639D01*
X8976461Y-499059D01*
X8964066Y-505206D01*
X8952534Y-512876D01*
X8942120Y-522020D01*
X8932976Y-532434D01*
X8925306Y-543966D01*
X8919159Y-556361D01*
X8914739Y-569518D01*
X8911996Y-583082D01*
X8911132Y-596900D01*
X8911996Y-610717D01*
X8914739Y-624281D01*
X8919159Y-637438D01*
X8925306Y-649833D01*
X8932976Y-661365D01*
X8942120Y-671779D01*
X8952534Y-680923D01*
X8964066Y-688594D01*
X8976461Y-694740D01*
X8989618Y-699160D01*
X9003182Y-701903D01*
G37*
G36*
X14523821Y-627380D02*
G01*
X14571980Y-627380D01*
X14571980Y-579221D01*
X14565376Y-582472D01*
X14553996Y-590092D01*
X14543735Y-599084D01*
X14534692Y-609396D01*
X14527072Y-620776D01*
G37*
G36*
X14663419Y-627380D02*
G01*
X14711578Y-627380D01*
X14708327Y-620776D01*
X14700707Y-609396D01*
X14691664Y-599084D01*
X14681403Y-590092D01*
X14670024Y-582472D01*
X14663419Y-579221D01*
G37*
G36*
X11582400Y-448767D02*
G01*
X11596217Y-447903D01*
X11609781Y-445160D01*
X11622938Y-440740D01*
X11635333Y-434593D01*
X11646865Y-426923D01*
X11657279Y-417779D01*
X11666423Y-407365D01*
X11674094Y-395833D01*
X11680240Y-383438D01*
X11684660Y-370281D01*
X11687403Y-356717D01*
X11688267Y-342900D01*
X11687403Y-329082D01*
X11684660Y-315518D01*
X11680240Y-302361D01*
X11674094Y-289966D01*
X11666423Y-278434D01*
X11657279Y-268020D01*
X11646865Y-258876D01*
X11635333Y-251206D01*
X11622938Y-245059D01*
X11609781Y-240639D01*
X11596217Y-237896D01*
X11582400Y-237032D01*
X11568582Y-237896D01*
X11564670Y-238607D01*
X11556034Y-239166D01*
X11542623Y-241858D01*
X11529669Y-246227D01*
X11517376Y-252323D01*
X11505996Y-259892D01*
X11495735Y-268935D01*
X11486692Y-279196D01*
X11479072Y-290576D01*
X11473027Y-302869D01*
X11468658Y-315823D01*
X11465966Y-329234D01*
X11465052Y-342900D01*
X11465966Y-356565D01*
X11468658Y-369976D01*
X11473027Y-382981D01*
X11479072Y-395224D01*
X11486692Y-406603D01*
X11495735Y-416915D01*
X11505996Y-425907D01*
X11517376Y-433527D01*
X11529669Y-439572D01*
X11542623Y-443992D01*
X11556034Y-446684D01*
X11566245Y-447395D01*
X11568582Y-447903D01*
G37*
G36*
X8970670Y-437845D02*
G01*
X8970670Y-389229D01*
X8922054Y-389229D01*
X8925306Y-395833D01*
X8932976Y-407365D01*
X8942120Y-417779D01*
X8952534Y-426923D01*
X8964066Y-434593D01*
G37*
G36*
X9075420Y-436778D02*
G01*
X9082024Y-433527D01*
X9093403Y-425907D01*
X9103715Y-416915D01*
X9112707Y-406603D01*
X9120327Y-395224D01*
X9123273Y-389229D01*
X9075420Y-389229D01*
G37*
G36*
X9075420Y-296570D02*
G01*
X9123273Y-296570D01*
X9120327Y-290576D01*
X9112707Y-279196D01*
X9103715Y-268935D01*
X9093403Y-259892D01*
X9082024Y-252323D01*
X9075420Y-249072D01*
G37*
G36*
X8922054Y-296570D02*
G01*
X8970670Y-296570D01*
X8970670Y-247954D01*
X8964066Y-251206D01*
X8952534Y-258876D01*
X8942120Y-268020D01*
X8932976Y-278434D01*
X8925306Y-289966D01*
G37*
G36*
X11582400Y-194767D02*
G01*
X11596217Y-193903D01*
X11609781Y-191160D01*
X11622938Y-186740D01*
X11635333Y-180594D01*
X11646865Y-172923D01*
X11657279Y-163779D01*
X11666423Y-153365D01*
X11674094Y-141833D01*
X11680240Y-129438D01*
X11684660Y-116281D01*
X11687403Y-102717D01*
X11688267Y-88900D01*
X11687403Y-75082D01*
X11684660Y-61518D01*
X11680240Y-48361D01*
X11674094Y-35966D01*
X11666423Y-24434D01*
X11657279Y-14020D01*
X11646865Y-4876D01*
X11635333Y2794D01*
X11622938Y8940D01*
X11609781Y13360D01*
X11596217Y16103D01*
X11582400Y16967D01*
X11568582Y16103D01*
X11564670Y15392D01*
X11556034Y14833D01*
X11542623Y12141D01*
X11529669Y7772D01*
X11517376Y1676D01*
X11505996Y-5892D01*
X11495735Y-14935D01*
X11486692Y-25196D01*
X11479072Y-36576D01*
X11473027Y-48869D01*
X11468658Y-61823D01*
X11465966Y-75234D01*
X11465052Y-88900D01*
X11465966Y-102565D01*
X11468658Y-115976D01*
X11473027Y-128981D01*
X11479072Y-141224D01*
X11486692Y-152603D01*
X11495735Y-162915D01*
X11505996Y-171907D01*
X11517376Y-179527D01*
X11529669Y-185572D01*
X11542623Y-189992D01*
X11556034Y-192684D01*
X11566245Y-193395D01*
X11568582Y-193903D01*
G37*
G36*
X9017000Y-194767D02*
G01*
X9030817Y-193903D01*
X9034475Y-193243D01*
X9043365Y-192684D01*
X9056776Y-189992D01*
X9069730Y-185572D01*
X9082024Y-179527D01*
X9093403Y-171907D01*
X9103715Y-162915D01*
X9112707Y-152603D01*
X9120327Y-141224D01*
X9126372Y-128981D01*
X9130792Y-115976D01*
X9133433Y-102565D01*
X9134348Y-88900D01*
X9133433Y-75234D01*
X9130792Y-61823D01*
X9126372Y-48869D01*
X9120327Y-36576D01*
X9112707Y-25196D01*
X9103715Y-14935D01*
X9093403Y-5892D01*
X9082024Y1676D01*
X9069730Y7772D01*
X9056776Y12141D01*
X9043365Y14833D01*
X9033408Y15544D01*
X9030817Y16103D01*
X9017000Y16967D01*
X9003182Y16103D01*
X8989618Y13360D01*
X8976461Y8940D01*
X8964066Y2794D01*
X8952534Y-4876D01*
X8942120Y-14020D01*
X8932976Y-24434D01*
X8925306Y-35966D01*
X8919159Y-48361D01*
X8914739Y-61518D01*
X8911996Y-75082D01*
X8911132Y-88900D01*
X8911996Y-102717D01*
X8914739Y-116281D01*
X8919159Y-129438D01*
X8925306Y-141833D01*
X8932976Y-153365D01*
X8942120Y-163779D01*
X8952534Y-172923D01*
X8964066Y-180594D01*
X8976461Y-186740D01*
X8989618Y-191160D01*
X9003182Y-193903D01*
G37*
G36*
X11582400Y59232D02*
G01*
X11596217Y60096D01*
X11609781Y62839D01*
X11622938Y67259D01*
X11635333Y73406D01*
X11646865Y81076D01*
X11657279Y90220D01*
X11666423Y100634D01*
X11674094Y112166D01*
X11680240Y124561D01*
X11684660Y137718D01*
X11687403Y151282D01*
X11688267Y165100D01*
X11687403Y178917D01*
X11684660Y192481D01*
X11680240Y205638D01*
X11674094Y218033D01*
X11666423Y229565D01*
X11657279Y239979D01*
X11646865Y249123D01*
X11635333Y256794D01*
X11622938Y262940D01*
X11609781Y267360D01*
X11596217Y270103D01*
X11582400Y270967D01*
X11568582Y270103D01*
X11564670Y269392D01*
X11556034Y268833D01*
X11542623Y266141D01*
X11529669Y261772D01*
X11517376Y255676D01*
X11505996Y248107D01*
X11495735Y239064D01*
X11486692Y228803D01*
X11479072Y217424D01*
X11473027Y205130D01*
X11468658Y192176D01*
X11465966Y178765D01*
X11465052Y165100D01*
X11465966Y151434D01*
X11468658Y138023D01*
X11473027Y125018D01*
X11479072Y112776D01*
X11486692Y101396D01*
X11495735Y91084D01*
X11505996Y82092D01*
X11517376Y74472D01*
X11529669Y68427D01*
X11542623Y64008D01*
X11556034Y61315D01*
X11566245Y60604D01*
X11568582Y60096D01*
G37*
G36*
X9017000Y59232D02*
G01*
X9030817Y60096D01*
X9044381Y62839D01*
X9057538Y67259D01*
X9069933Y73406D01*
X9081465Y81076D01*
X9086748Y85598D01*
X9093403Y90068D01*
X9103715Y99110D01*
X9112707Y109372D01*
X9120327Y120751D01*
X9126372Y133045D01*
X9130792Y145999D01*
X9133433Y159410D01*
X9134348Y173075D01*
X9133433Y186740D01*
X9130792Y200152D01*
X9126372Y213106D01*
X9120327Y225399D01*
X9112707Y236778D01*
X9103715Y247091D01*
X9093403Y256082D01*
X9082024Y263702D01*
X9069730Y269748D01*
X9056776Y274167D01*
X9043365Y276809D01*
X9029700Y277723D01*
X9016034Y276809D01*
X9002623Y274167D01*
X8989669Y269748D01*
X8977376Y263702D01*
X8974937Y262178D01*
X8964066Y256794D01*
X8952534Y249123D01*
X8942120Y239979D01*
X8932976Y229565D01*
X8925306Y218033D01*
X8919159Y205638D01*
X8914739Y192481D01*
X8911996Y178917D01*
X8911132Y165100D01*
X8911996Y151282D01*
X8914739Y137718D01*
X8919159Y124561D01*
X8925306Y112166D01*
X8932976Y100634D01*
X8942120Y90220D01*
X8952534Y81076D01*
X8964066Y73406D01*
X8976461Y67259D01*
X8989618Y62839D01*
X9003182Y60096D01*
G37*
G36*
X11582400Y313232D02*
G01*
X11596217Y314096D01*
X11609781Y316839D01*
X11622938Y321259D01*
X11635333Y327406D01*
X11646865Y335076D01*
X11657279Y344220D01*
X11666423Y354634D01*
X11674094Y366166D01*
X11680240Y378561D01*
X11684660Y391718D01*
X11687403Y405282D01*
X11688267Y419100D01*
X11687403Y432917D01*
X11684660Y446481D01*
X11680240Y459638D01*
X11674094Y472033D01*
X11666423Y483565D01*
X11657279Y493979D01*
X11646865Y503123D01*
X11635333Y510793D01*
X11622938Y516940D01*
X11609781Y521360D01*
X11596217Y524103D01*
X11582400Y524967D01*
X11568582Y524103D01*
X11564670Y523392D01*
X11556034Y522833D01*
X11542623Y520141D01*
X11529669Y515772D01*
X11517376Y509676D01*
X11505996Y502107D01*
X11495735Y493064D01*
X11486692Y482803D01*
X11479072Y471424D01*
X11473027Y459130D01*
X11468658Y446176D01*
X11465966Y432765D01*
X11465052Y419100D01*
X11465966Y405434D01*
X11468658Y392023D01*
X11473027Y379018D01*
X11479072Y366776D01*
X11486692Y355396D01*
X11495735Y345084D01*
X11505996Y336092D01*
X11517376Y328472D01*
X11529669Y322427D01*
X11542623Y318008D01*
X11556034Y315315D01*
X11566245Y314604D01*
X11568582Y314096D01*
G37*
G36*
X11582400Y567232D02*
G01*
X11596217Y568096D01*
X11609781Y570839D01*
X11622938Y575259D01*
X11635333Y581406D01*
X11646865Y589076D01*
X11657279Y598220D01*
X11666423Y608634D01*
X11674094Y620166D01*
X11680240Y632561D01*
X11684660Y645718D01*
X11687403Y659282D01*
X11688267Y673100D01*
X11687403Y686917D01*
X11684660Y700481D01*
X11680240Y713638D01*
X11674094Y726033D01*
X11666423Y737565D01*
X11657279Y747979D01*
X11646865Y757123D01*
X11635333Y764794D01*
X11622938Y770940D01*
X11609781Y775360D01*
X11596217Y778103D01*
X11582400Y778967D01*
X11568582Y778103D01*
X11564670Y777392D01*
X11556034Y776833D01*
X11542623Y774141D01*
X11529669Y769772D01*
X11517376Y763676D01*
X11505996Y756107D01*
X11495735Y747064D01*
X11486692Y736803D01*
X11479072Y725424D01*
X11473027Y713130D01*
X11468658Y700176D01*
X11465966Y686765D01*
X11465052Y673100D01*
X11465966Y659434D01*
X11468658Y646023D01*
X11473027Y633018D01*
X11479072Y620776D01*
X11486692Y609396D01*
X11495735Y599084D01*
X11505996Y590092D01*
X11517376Y582472D01*
X11529669Y576427D01*
X11542623Y572008D01*
X11556034Y569315D01*
X11566245Y568604D01*
X11568582Y568096D01*
G37*
G36*
X15243301Y982726D02*
G01*
X15262098Y982726D01*
X15280843Y984656D01*
X15299283Y988415D01*
X15317266Y994054D01*
X15334589Y1001521D01*
X15351048Y1010666D01*
X15366492Y1021384D01*
X15380766Y1033678D01*
X15393771Y1047292D01*
X15405252Y1062228D01*
X15415260Y1078179D01*
X15423540Y1095095D01*
X15430093Y1112774D01*
X15434767Y1130960D01*
X15437662Y1149604D01*
X15438577Y1168400D01*
X15437662Y1187196D01*
X15434767Y1205839D01*
X15430093Y1224026D01*
X15423540Y1241704D01*
X15415260Y1258620D01*
X15405252Y1274572D01*
X15393771Y1289507D01*
X15380766Y1303121D01*
X15366492Y1315415D01*
X15351048Y1326134D01*
X15334589Y1335278D01*
X15317266Y1342745D01*
X15299283Y1348384D01*
X15280843Y1352143D01*
X15262098Y1354074D01*
X15243301Y1354074D01*
X15224556Y1352143D01*
X15206116Y1348384D01*
X15188133Y1342745D01*
X15170810Y1335278D01*
X15154351Y1326134D01*
X15138907Y1315415D01*
X15124633Y1303121D01*
X15111628Y1289507D01*
X15100147Y1274572D01*
X15090140Y1258620D01*
X15081859Y1241704D01*
X15075306Y1224026D01*
X15070632Y1205839D01*
X15067737Y1187196D01*
X15066822Y1168400D01*
X15067737Y1149604D01*
X15070632Y1130960D01*
X15075306Y1112774D01*
X15081859Y1095095D01*
X15090140Y1078179D01*
X15100147Y1062228D01*
X15111628Y1047292D01*
X15124633Y1033678D01*
X15138907Y1021384D01*
X15154351Y1010666D01*
X15170810Y1001521D01*
X15188133Y994054D01*
X15206116Y988415D01*
X15224556Y984656D01*
G37*
G36*
X11582400Y1075232D02*
G01*
X11596217Y1076096D01*
X11609781Y1078839D01*
X11622938Y1083259D01*
X11635333Y1089406D01*
X11646865Y1097076D01*
X11657279Y1106220D01*
X11666423Y1116634D01*
X11674094Y1128166D01*
X11680240Y1140561D01*
X11684660Y1153718D01*
X11687403Y1167282D01*
X11688267Y1181100D01*
X11687403Y1194917D01*
X11684660Y1208481D01*
X11680240Y1221638D01*
X11674094Y1234033D01*
X11666423Y1245565D01*
X11657279Y1255979D01*
X11646865Y1265123D01*
X11635333Y1272794D01*
X11622938Y1278940D01*
X11609781Y1283360D01*
X11596217Y1286103D01*
X11582400Y1286967D01*
X11568582Y1286103D01*
X11564670Y1285392D01*
X11556034Y1284833D01*
X11542623Y1282141D01*
X11529669Y1277772D01*
X11517376Y1271676D01*
X11505996Y1264107D01*
X11495735Y1255064D01*
X11486692Y1244803D01*
X11479072Y1233424D01*
X11473027Y1221130D01*
X11468658Y1208176D01*
X11465966Y1194765D01*
X11465052Y1181100D01*
X11465966Y1167434D01*
X11468658Y1154023D01*
X11473027Y1141018D01*
X11479072Y1128776D01*
X11486692Y1117396D01*
X11495735Y1107084D01*
X11505996Y1098092D01*
X11517376Y1090472D01*
X11529669Y1084427D01*
X11542623Y1080008D01*
X11556034Y1077315D01*
X11566245Y1076604D01*
X11568582Y1076096D01*
G37*
G36*
X9017000Y1075232D02*
G01*
X9030817Y1076096D01*
X9034475Y1076756D01*
X9043365Y1077315D01*
X9056776Y1080008D01*
X9069730Y1084427D01*
X9082024Y1090472D01*
X9093403Y1098092D01*
X9103715Y1107084D01*
X9112707Y1117396D01*
X9120327Y1128776D01*
X9126372Y1141018D01*
X9130792Y1154023D01*
X9133433Y1167434D01*
X9134348Y1181100D01*
X9133433Y1194765D01*
X9130792Y1208176D01*
X9126372Y1221130D01*
X9120327Y1233424D01*
X9112707Y1244803D01*
X9103715Y1255064D01*
X9093403Y1264107D01*
X9082024Y1271676D01*
X9069730Y1277772D01*
X9056776Y1282141D01*
X9043365Y1284833D01*
X9033408Y1285544D01*
X9030817Y1286103D01*
X9017000Y1286967D01*
X9003182Y1286103D01*
X8989618Y1283360D01*
X8976461Y1278940D01*
X8964066Y1272794D01*
X8952534Y1265123D01*
X8942120Y1255979D01*
X8932976Y1245565D01*
X8925306Y1234033D01*
X8919159Y1221638D01*
X8914739Y1208481D01*
X8911996Y1194917D01*
X8911132Y1181100D01*
X8911996Y1167282D01*
X8914739Y1153718D01*
X8919159Y1140561D01*
X8925306Y1128166D01*
X8932976Y1116634D01*
X8942120Y1106220D01*
X8952534Y1097076D01*
X8964066Y1089406D01*
X8976461Y1083259D01*
X8989618Y1078839D01*
X9003182Y1076096D01*
G37*
G36*
X14109700Y1127252D02*
G01*
X14123365Y1128166D01*
X14136776Y1130808D01*
X14149730Y1135227D01*
X14162024Y1141272D01*
X14173403Y1148892D01*
X14183664Y1157884D01*
X14192707Y1168196D01*
X14200327Y1179576D01*
X14206372Y1191869D01*
X14210792Y1204823D01*
X14213433Y1218234D01*
X14214348Y1231900D01*
X14213433Y1245565D01*
X14210792Y1258976D01*
X14206372Y1271930D01*
X14200327Y1284224D01*
X14192707Y1295603D01*
X14183664Y1305864D01*
X14173403Y1314907D01*
X14162024Y1322527D01*
X14149730Y1328572D01*
X14136776Y1332992D01*
X14123365Y1335633D01*
X14109700Y1336548D01*
X14096034Y1335633D01*
X14082623Y1332992D01*
X14069669Y1328572D01*
X14057376Y1322527D01*
X14045996Y1314907D01*
X14035735Y1305864D01*
X14026692Y1295603D01*
X14019072Y1284224D01*
X14013027Y1271930D01*
X14008607Y1258976D01*
X14005966Y1245565D01*
X14005051Y1231900D01*
X14005966Y1218234D01*
X14008607Y1204823D01*
X14013027Y1191869D01*
X14019072Y1179576D01*
X14026692Y1168196D01*
X14035735Y1157884D01*
X14045996Y1148892D01*
X14057376Y1141272D01*
X14069669Y1135227D01*
X14082623Y1130808D01*
X14096034Y1128166D01*
G37*
G36*
X13777518Y1127252D02*
G01*
X13933881Y1127252D01*
X13940180Y1127963D01*
X13945666Y1129842D01*
X13950543Y1132941D01*
X13954658Y1137056D01*
X13957757Y1141933D01*
X13959636Y1147419D01*
X13960348Y1153718D01*
X13960348Y1310081D01*
X13959636Y1316380D01*
X13957757Y1321866D01*
X13954658Y1326743D01*
X13950543Y1330858D01*
X13945666Y1333957D01*
X13940180Y1335836D01*
X13933881Y1336548D01*
X13909751Y1336548D01*
X13906093Y1337259D01*
X13902893Y1339189D01*
X13900657Y1342186D01*
X13895374Y1352702D01*
X13894307Y1357274D01*
X13894307Y1840992D01*
X13893495Y1849018D01*
X13891310Y1856232D01*
X13887754Y1862937D01*
X13882624Y1869135D01*
X13694105Y2057704D01*
X13691869Y2061006D01*
X13691107Y2064918D01*
X13691107Y2381961D01*
X13691869Y2385822D01*
X13694003Y2389073D01*
X13697254Y2391308D01*
X13701064Y2392121D01*
X13704925Y2391460D01*
X13708227Y2389378D01*
X13710513Y2386177D01*
X13712088Y2382723D01*
X13718997Y2372004D01*
X13727328Y2362352D01*
X13736980Y2353970D01*
X13747699Y2347112D01*
X13759332Y2341778D01*
X13771524Y2338222D01*
X13784173Y2336393D01*
X13796924Y2336393D01*
X13800175Y2336698D01*
X13806932Y2336495D01*
X13814348Y2337206D01*
X13818158Y2336901D01*
X13821562Y2335174D01*
X13824102Y2332278D01*
X13825372Y2328672D01*
X13825270Y2324862D01*
X13823746Y2321356D01*
X13817650Y2312517D01*
X13811504Y2300376D01*
X13807033Y2287473D01*
X13804341Y2274112D01*
X13803426Y2260498D01*
X13804341Y2246884D01*
X13807033Y2233523D01*
X13811504Y2220671D01*
X13817650Y2208479D01*
X13825372Y2197252D01*
X13834516Y2187143D01*
X13844930Y2178304D01*
X13856462Y2170988D01*
X13868806Y2165248D01*
X13881811Y2161184D01*
X13895273Y2158949D01*
X13908938Y2158492D01*
X13922501Y2159812D01*
X13935760Y2163013D01*
X13948460Y2167890D01*
X13960449Y2174443D01*
X13971422Y2182520D01*
X13981226Y2192020D01*
X13989659Y2202738D01*
X13996619Y2214473D01*
X13998143Y2218029D01*
X14000226Y2221179D01*
X14003426Y2223363D01*
X14007134Y2224176D01*
X14010894Y2223617D01*
X14014196Y2221636D01*
X14016532Y2218639D01*
X14021663Y2208479D01*
X14029385Y2197252D01*
X14038529Y2187143D01*
X14048943Y2178304D01*
X14060424Y2170988D01*
X14072819Y2165248D01*
X14085824Y2161184D01*
X14099286Y2158949D01*
X14112900Y2158492D01*
X14126463Y2159812D01*
X14139722Y2163013D01*
X14152473Y2167890D01*
X14164411Y2174443D01*
X14175435Y2182520D01*
X14185188Y2192020D01*
X14193672Y2202738D01*
X14200632Y2214473D01*
X14202105Y2218029D01*
X14204238Y2221179D01*
X14207388Y2223363D01*
X14211147Y2224176D01*
X14214906Y2223617D01*
X14218208Y2221636D01*
X14220545Y2218639D01*
X14225676Y2208479D01*
X14233398Y2197252D01*
X14242542Y2187143D01*
X14252956Y2178304D01*
X14264436Y2170988D01*
X14276832Y2165248D01*
X14289836Y2161184D01*
X14303298Y2158949D01*
X14316913Y2158492D01*
X14330476Y2159812D01*
X14343735Y2163013D01*
X14356486Y2167890D01*
X14368424Y2174443D01*
X14379397Y2182520D01*
X14389201Y2192020D01*
X14397685Y2202738D01*
X14404594Y2214473D01*
X14406118Y2218029D01*
X14408251Y2221179D01*
X14410791Y2222957D01*
X14410131Y2225192D01*
X14410436Y2228900D01*
X14413534Y2240178D01*
X14415363Y2253691D01*
X14415363Y2267305D01*
X14413534Y2280818D01*
X14410436Y2292096D01*
X14410131Y2295804D01*
X14410791Y2298039D01*
X14408251Y2299817D01*
X14406118Y2303018D01*
X14404594Y2306523D01*
X14397685Y2318258D01*
X14389201Y2328976D01*
X14379397Y2338476D01*
X14375180Y2341575D01*
X14372945Y2343810D01*
X14371523Y2346655D01*
X14371066Y2349754D01*
X14371066Y2394051D01*
X14323822Y2394051D01*
X14327682Y2386482D01*
X14333728Y2377643D01*
X14335251Y2374138D01*
X14335404Y2370328D01*
X14334083Y2366721D01*
X14331543Y2363825D01*
X14328140Y2362098D01*
X14324330Y2361793D01*
X14316913Y2362504D01*
X14302181Y2361996D01*
X14298422Y2362555D01*
X14295119Y2364486D01*
X14292783Y2367534D01*
X14291716Y2371191D01*
X14292072Y2375001D01*
X14293850Y2378405D01*
X14295678Y2380742D01*
X14302638Y2392476D01*
X14304111Y2395982D01*
X14306245Y2399182D01*
X14308785Y2400960D01*
X14308124Y2403195D01*
X14308480Y2406904D01*
X14311528Y2418181D01*
X14313357Y2431694D01*
X14313357Y2445308D01*
X14311528Y2458821D01*
X14308480Y2470099D01*
X14308124Y2473807D01*
X14308785Y2476042D01*
X14306245Y2477820D01*
X14304111Y2481021D01*
X14302638Y2484526D01*
X14295678Y2496261D01*
X14288160Y2505913D01*
X14252194Y2549144D01*
X14250619Y2551734D01*
X14249907Y2554681D01*
X14249349Y2559964D01*
X14247164Y2567178D01*
X14243608Y2573883D01*
X14238478Y2580081D01*
X14150035Y2668524D01*
X14143837Y2673654D01*
X14137132Y2677210D01*
X14129918Y2679395D01*
X14121892Y2680208D01*
X13805407Y2680208D01*
X13797381Y2679395D01*
X13790168Y2677210D01*
X13783462Y2673654D01*
X13777264Y2668524D01*
X13727480Y2618790D01*
X13724229Y2616606D01*
X13720419Y2615793D01*
X13716609Y2616504D01*
X13713307Y2618587D01*
X13711021Y2621737D01*
X13710157Y2625547D01*
X13710716Y2629357D01*
X13712951Y2635656D01*
X13717625Y2654300D01*
X13720470Y2673299D01*
X13721384Y2692501D01*
X13720470Y2711704D01*
X13717625Y2730703D01*
X13712951Y2749346D01*
X13706500Y2767482D01*
X13698270Y2784856D01*
X13688364Y2801315D01*
X13676934Y2816758D01*
X13664031Y2831033D01*
X13649756Y2843936D01*
X13634313Y2855366D01*
X13617854Y2865272D01*
X13600480Y2873502D01*
X13582345Y2879953D01*
X13563701Y2884627D01*
X13544702Y2887472D01*
X13525500Y2888386D01*
X13506297Y2887472D01*
X13487298Y2884627D01*
X13468654Y2879953D01*
X13450519Y2873502D01*
X13433145Y2865272D01*
X13416686Y2855366D01*
X13401243Y2843936D01*
X13386968Y2831033D01*
X13374065Y2816758D01*
X13362635Y2801315D01*
X13352729Y2784856D01*
X13344499Y2767482D01*
X13338048Y2749346D01*
X13333374Y2730703D01*
X13330529Y2711704D01*
X13329615Y2692501D01*
X13330529Y2673299D01*
X13333374Y2654300D01*
X13338048Y2635656D01*
X13344499Y2617520D01*
X13352729Y2600147D01*
X13362635Y2583688D01*
X13374065Y2568244D01*
X13386968Y2553970D01*
X13401243Y2541066D01*
X13416686Y2529636D01*
X13433145Y2519730D01*
X13450519Y2511501D01*
X13468654Y2505049D01*
X13487298Y2500376D01*
X13506297Y2497531D01*
X13525500Y2496616D01*
X13544702Y2497531D01*
X13563701Y2500376D01*
X13582345Y2505049D01*
X13600480Y2511501D01*
X13605357Y2513025D01*
X13609218Y2512466D01*
X13612571Y2510536D01*
X13614958Y2507488D01*
X13616025Y2503779D01*
X13615669Y2499918D01*
X13614704Y2496718D01*
X13613892Y2488692D01*
X13613892Y2045207D01*
X13614704Y2037181D01*
X13616889Y2029968D01*
X13620445Y2023262D01*
X13625576Y2017064D01*
X13814094Y1828495D01*
X13816330Y1825193D01*
X13817092Y1821281D01*
X13817092Y1357274D01*
X13816025Y1352702D01*
X13810742Y1342186D01*
X13808506Y1339189D01*
X13805306Y1337259D01*
X13801648Y1336548D01*
X13777518Y1336548D01*
X13771219Y1335836D01*
X13765733Y1333957D01*
X13760856Y1330858D01*
X13756741Y1326743D01*
X13753642Y1321866D01*
X13751763Y1316380D01*
X13751051Y1310081D01*
X13751051Y1153718D01*
X13751763Y1147419D01*
X13753642Y1141933D01*
X13756741Y1137056D01*
X13760856Y1132941D01*
X13765733Y1129842D01*
X13771219Y1127963D01*
G37*
G36*
X14409419Y1138021D02*
G01*
X14416024Y1141272D01*
X14427403Y1148892D01*
X14437664Y1157884D01*
X14446707Y1168196D01*
X14454327Y1179576D01*
X14457578Y1186180D01*
X14409419Y1186180D01*
G37*
G36*
X14317980Y1138021D02*
G01*
X14317980Y1186180D01*
X14269821Y1186180D01*
X14273072Y1179576D01*
X14280692Y1168196D01*
X14289735Y1157884D01*
X14299996Y1148892D01*
X14311376Y1141272D01*
G37*
G36*
X14269821Y1277620D02*
G01*
X14317980Y1277620D01*
X14317980Y1325778D01*
X14311376Y1322527D01*
X14299996Y1314907D01*
X14289735Y1305864D01*
X14280692Y1295603D01*
X14273072Y1284224D01*
G37*
G36*
X14409419Y1277620D02*
G01*
X14457578Y1277620D01*
X14454327Y1284224D01*
X14446707Y1295603D01*
X14437664Y1305864D01*
X14427403Y1314907D01*
X14416024Y1322527D01*
X14409419Y1325778D01*
G37*
G36*
X9017000Y1329232D02*
G01*
X9030817Y1330096D01*
X9034475Y1330756D01*
X9043365Y1331315D01*
X9056776Y1334008D01*
X9069730Y1338427D01*
X9082024Y1344472D01*
X9093403Y1352092D01*
X9103715Y1361084D01*
X9112707Y1371396D01*
X9120327Y1382776D01*
X9126372Y1395018D01*
X9130792Y1408023D01*
X9133433Y1421434D01*
X9134348Y1435100D01*
X9133433Y1448765D01*
X9130792Y1462176D01*
X9126372Y1475130D01*
X9120327Y1487424D01*
X9112707Y1498803D01*
X9103715Y1509064D01*
X9093403Y1518107D01*
X9082024Y1525676D01*
X9069730Y1531772D01*
X9056776Y1536141D01*
X9043365Y1538833D01*
X9033408Y1539544D01*
X9030817Y1540103D01*
X9017000Y1540967D01*
X9003182Y1540103D01*
X8989618Y1537360D01*
X8976461Y1532940D01*
X8964066Y1526794D01*
X8952534Y1519123D01*
X8942120Y1509979D01*
X8932976Y1499565D01*
X8925306Y1488033D01*
X8919159Y1475638D01*
X8914739Y1462481D01*
X8911996Y1448917D01*
X8911132Y1435100D01*
X8911996Y1421282D01*
X8914739Y1407718D01*
X8919159Y1394561D01*
X8925306Y1382166D01*
X8932976Y1370634D01*
X8942120Y1360220D01*
X8952534Y1351076D01*
X8964066Y1343406D01*
X8976461Y1337259D01*
X8989618Y1332839D01*
X9003182Y1330096D01*
G37*
G36*
X11628729Y1340154D02*
G01*
X11635333Y1343406D01*
X11646865Y1351076D01*
X11657279Y1360220D01*
X11666423Y1370634D01*
X11674094Y1382166D01*
X11677345Y1388770D01*
X11628729Y1388770D01*
G37*
G36*
X11523980Y1341221D02*
G01*
X11523980Y1388770D01*
X11476126Y1388770D01*
X11479072Y1382776D01*
X11486692Y1371396D01*
X11495735Y1361084D01*
X11505996Y1352092D01*
X11517376Y1344472D01*
G37*
G36*
X11476177Y1481429D02*
G01*
X11523980Y1481429D01*
X11523980Y1528927D01*
X11517376Y1525676D01*
X11505996Y1518107D01*
X11495735Y1509064D01*
X11486692Y1498803D01*
X11479072Y1487424D01*
G37*
G36*
X11628729Y1481429D02*
G01*
X11677345Y1481429D01*
X11674094Y1488033D01*
X11666423Y1499565D01*
X11657279Y1509979D01*
X11646865Y1519123D01*
X11635333Y1526794D01*
X11628729Y1530045D01*
G37*
G36*
X9033154Y1563268D02*
G01*
X9048343Y1564589D01*
X9063177Y1567738D01*
X9077553Y1572666D01*
X9091269Y1579270D01*
X9104071Y1587500D01*
X9115755Y1597202D01*
X9126220Y1608226D01*
X9135262Y1620469D01*
X9142730Y1633677D01*
X9148622Y1647698D01*
X9152737Y1662328D01*
X9155074Y1677365D01*
X9155582Y1692554D01*
X9154210Y1707692D01*
X9151061Y1722577D01*
X9146133Y1736953D01*
X9139529Y1750669D01*
X9131300Y1763420D01*
X9121597Y1775155D01*
X9110573Y1785620D01*
X9098381Y1794662D01*
X9085122Y1802130D01*
X9071102Y1808022D01*
X9056471Y1812137D01*
X9041434Y1814423D01*
X9026245Y1814931D01*
X9011107Y1813610D01*
X8996222Y1810461D01*
X8981846Y1805533D01*
X8968181Y1798929D01*
X8955379Y1790700D01*
X8943695Y1780997D01*
X8933230Y1769973D01*
X8924188Y1757730D01*
X8916670Y1744522D01*
X8910828Y1730502D01*
X8906713Y1715871D01*
X8904376Y1700834D01*
X8903868Y1685645D01*
X8905189Y1670507D01*
X8908338Y1655622D01*
X8913266Y1641246D01*
X8919921Y1627581D01*
X8928100Y1614779D01*
X8937802Y1603044D01*
X8948877Y1592630D01*
X8961069Y1583588D01*
X8974277Y1576070D01*
X8988348Y1570228D01*
X9002979Y1566113D01*
X9017965Y1563776D01*
G37*
G36*
X11582400Y1583232D02*
G01*
X11596217Y1584096D01*
X11609781Y1586839D01*
X11622938Y1591259D01*
X11635333Y1597406D01*
X11646865Y1605076D01*
X11657279Y1614220D01*
X11666423Y1624634D01*
X11674094Y1636166D01*
X11680240Y1648561D01*
X11684660Y1661718D01*
X11687403Y1675282D01*
X11688267Y1689100D01*
X11687403Y1702917D01*
X11684660Y1716481D01*
X11680240Y1729638D01*
X11674094Y1742033D01*
X11666423Y1753565D01*
X11657279Y1763979D01*
X11646865Y1773123D01*
X11635333Y1780793D01*
X11622938Y1786940D01*
X11609781Y1791360D01*
X11596217Y1794103D01*
X11582400Y1794967D01*
X11568582Y1794103D01*
X11564670Y1793392D01*
X11556034Y1792833D01*
X11542623Y1790141D01*
X11529669Y1785772D01*
X11517376Y1779676D01*
X11505996Y1772107D01*
X11495735Y1763064D01*
X11486692Y1752803D01*
X11479072Y1741424D01*
X11473027Y1729130D01*
X11468658Y1716176D01*
X11465966Y1702765D01*
X11465052Y1689100D01*
X11465966Y1675434D01*
X11468658Y1662023D01*
X11473027Y1649018D01*
X11479072Y1636776D01*
X11486692Y1625396D01*
X11495735Y1615084D01*
X11505996Y1606092D01*
X11517376Y1598472D01*
X11529669Y1592427D01*
X11542623Y1588008D01*
X11556034Y1585315D01*
X11566245Y1584604D01*
X11568582Y1584096D01*
G37*
G36*
X11582400Y1837232D02*
G01*
X11596217Y1838096D01*
X11609781Y1840839D01*
X11622938Y1845259D01*
X11635333Y1851406D01*
X11646865Y1859076D01*
X11657279Y1868220D01*
X11666423Y1878634D01*
X11674094Y1890166D01*
X11680240Y1902561D01*
X11684660Y1915718D01*
X11687403Y1929282D01*
X11688267Y1943100D01*
X11687403Y1956917D01*
X11684660Y1970481D01*
X11680240Y1983638D01*
X11674094Y1996033D01*
X11666423Y2007565D01*
X11657279Y2017979D01*
X11646865Y2027123D01*
X11635333Y2034793D01*
X11622938Y2040940D01*
X11609781Y2045360D01*
X11596217Y2048103D01*
X11582400Y2048967D01*
X11568582Y2048103D01*
X11564670Y2047392D01*
X11556034Y2046833D01*
X11542623Y2044141D01*
X11529669Y2039772D01*
X11517376Y2033676D01*
X11505996Y2026107D01*
X11495735Y2017064D01*
X11486692Y2006803D01*
X11479072Y1995424D01*
X11473027Y1983130D01*
X11468658Y1970176D01*
X11465966Y1956765D01*
X11465052Y1943100D01*
X11465966Y1929434D01*
X11468658Y1916023D01*
X11473027Y1903018D01*
X11479072Y1890775D01*
X11486692Y1879396D01*
X11495735Y1869084D01*
X11505996Y1860092D01*
X11517376Y1852472D01*
X11529669Y1846427D01*
X11542623Y1842007D01*
X11556034Y1839315D01*
X11566245Y1838604D01*
X11568582Y1838096D01*
G37*
G36*
X9017000Y1837232D02*
G01*
X9030817Y1838096D01*
X9034475Y1838756D01*
X9043365Y1839315D01*
X9056776Y1842007D01*
X9069730Y1846427D01*
X9082024Y1852472D01*
X9093403Y1860092D01*
X9103715Y1869084D01*
X9112707Y1879396D01*
X9120327Y1890775D01*
X9126372Y1903018D01*
X9130792Y1916023D01*
X9133433Y1929434D01*
X9134348Y1943100D01*
X9133433Y1956765D01*
X9130792Y1970176D01*
X9126372Y1983130D01*
X9120327Y1995424D01*
X9112707Y2006803D01*
X9103715Y2017064D01*
X9093403Y2026107D01*
X9082024Y2033676D01*
X9069730Y2039772D01*
X9056776Y2044141D01*
X9043365Y2046833D01*
X9033408Y2047544D01*
X9030817Y2048103D01*
X9017000Y2048967D01*
X9003182Y2048103D01*
X8989618Y2045360D01*
X8976461Y2040940D01*
X8964066Y2034793D01*
X8952534Y2027123D01*
X8942120Y2017979D01*
X8932976Y2007565D01*
X8925306Y1996033D01*
X8919159Y1983638D01*
X8914739Y1970481D01*
X8911996Y1956917D01*
X8911132Y1943100D01*
X8911996Y1929282D01*
X8914739Y1915718D01*
X8919159Y1902561D01*
X8925306Y1890166D01*
X8932976Y1878634D01*
X8942120Y1868220D01*
X8952534Y1859076D01*
X8964066Y1851406D01*
X8976461Y1845259D01*
X8989618Y1840839D01*
X9003182Y1838096D01*
G37*
G36*
X11582400Y2091232D02*
G01*
X11596217Y2092096D01*
X11609781Y2094839D01*
X11622938Y2099259D01*
X11635333Y2105406D01*
X11646865Y2113076D01*
X11657279Y2122220D01*
X11666423Y2132634D01*
X11674094Y2144166D01*
X11680240Y2156561D01*
X11684660Y2169718D01*
X11687403Y2183282D01*
X11688267Y2197100D01*
X11687403Y2210917D01*
X11684660Y2224481D01*
X11680240Y2237638D01*
X11674094Y2250033D01*
X11666423Y2261565D01*
X11657279Y2271979D01*
X11646865Y2281123D01*
X11635333Y2288794D01*
X11622938Y2294940D01*
X11609781Y2299360D01*
X11596217Y2302103D01*
X11582400Y2302967D01*
X11568582Y2302103D01*
X11564670Y2301392D01*
X11556034Y2300833D01*
X11542623Y2298141D01*
X11529669Y2293772D01*
X11517376Y2287676D01*
X11505996Y2280107D01*
X11495735Y2271064D01*
X11486692Y2260803D01*
X11479072Y2249424D01*
X11473027Y2237130D01*
X11468658Y2224176D01*
X11465966Y2210765D01*
X11465052Y2197100D01*
X11465966Y2183434D01*
X11468658Y2170023D01*
X11473027Y2157018D01*
X11479072Y2144776D01*
X11486692Y2133396D01*
X11495735Y2123084D01*
X11505996Y2114092D01*
X11517376Y2106472D01*
X11529669Y2100427D01*
X11542623Y2096007D01*
X11556034Y2093315D01*
X11566245Y2092604D01*
X11568582Y2092096D01*
G37*
G36*
X9017000Y2091232D02*
G01*
X9030817Y2092096D01*
X9034475Y2092756D01*
X9043365Y2093315D01*
X9056776Y2096007D01*
X9069730Y2100427D01*
X9082024Y2106472D01*
X9093403Y2114092D01*
X9103715Y2123084D01*
X9112707Y2133396D01*
X9120327Y2144776D01*
X9126372Y2157018D01*
X9130792Y2170023D01*
X9133433Y2183434D01*
X9134348Y2197100D01*
X9133433Y2210765D01*
X9130792Y2224176D01*
X9126372Y2237130D01*
X9120327Y2249424D01*
X9112707Y2260803D01*
X9103715Y2271064D01*
X9093403Y2280107D01*
X9082024Y2287676D01*
X9069730Y2293772D01*
X9056776Y2298141D01*
X9043365Y2300833D01*
X9033408Y2301544D01*
X9030817Y2302103D01*
X9017000Y2302967D01*
X9003182Y2302103D01*
X8989618Y2299360D01*
X8976461Y2294940D01*
X8964066Y2288794D01*
X8952534Y2281123D01*
X8942120Y2271979D01*
X8932976Y2261565D01*
X8925306Y2250033D01*
X8919159Y2237638D01*
X8914739Y2224481D01*
X8911996Y2210917D01*
X8911132Y2197100D01*
X8911996Y2183282D01*
X8914739Y2169718D01*
X8919159Y2156561D01*
X8925306Y2144166D01*
X8932976Y2132634D01*
X8942120Y2122220D01*
X8952534Y2113076D01*
X8964066Y2105406D01*
X8976461Y2099259D01*
X8989618Y2094839D01*
X9003182Y2092096D01*
G37*
G36*
X14561972Y2168702D02*
G01*
X14572437Y2174443D01*
X14583410Y2182520D01*
X14593214Y2192020D01*
X14601647Y2202738D01*
X14608606Y2214473D01*
X14609267Y2216048D01*
X14561972Y2216048D01*
G37*
G36*
X14473072Y2168855D02*
G01*
X14473072Y2216048D01*
X14425828Y2216048D01*
X14429689Y2208479D01*
X14437410Y2197252D01*
X14446554Y2187143D01*
X14456968Y2178304D01*
X14468449Y2170988D01*
G37*
G36*
X15877743Y2262632D02*
G01*
X15894202Y2272131D01*
X15913201Y2285339D01*
X15930981Y2300071D01*
X15947491Y2316226D01*
X15962579Y2333701D01*
X15976193Y2352395D01*
X15988944Y2373731D01*
X15877743Y2373731D01*
G37*
G36*
X5231333Y2262632D02*
G01*
X5247792Y2272131D01*
X5266791Y2285339D01*
X5284571Y2300071D01*
X5301081Y2316226D01*
X5316220Y2333701D01*
X5329783Y2352395D01*
X5341772Y2372156D01*
X5342534Y2373731D01*
X5231333Y2373731D01*
G37*
G36*
X4968646Y2262733D02*
G01*
X4968646Y2373731D01*
X4857648Y2373731D01*
X4863998Y2362149D01*
X4876749Y2342946D01*
X4891125Y2324811D01*
X4906924Y2307996D01*
X4924094Y2292502D01*
X4942535Y2278532D01*
X4962042Y2266137D01*
G37*
G36*
X15615005Y2262733D02*
G01*
X15615005Y2373731D01*
X15504007Y2373731D01*
X15510357Y2362200D01*
X15523159Y2342946D01*
X15537535Y2324811D01*
X15553334Y2307996D01*
X15570504Y2292502D01*
X15588894Y2278532D01*
X15608401Y2266188D01*
G37*
G36*
X14561972Y2304948D02*
G01*
X14609267Y2304948D01*
X14608606Y2306523D01*
X14601647Y2318258D01*
X14593214Y2328976D01*
X14583410Y2338476D01*
X14572437Y2346553D01*
X14561972Y2352294D01*
G37*
G36*
X14425828Y2304948D02*
G01*
X14473072Y2304948D01*
X14473072Y2367127D01*
X14473936Y2371344D01*
X14476476Y2374747D01*
X14480184Y2376830D01*
X14489785Y2379726D01*
X14500098Y2381453D01*
X14506600Y2392476D01*
X14507311Y2394051D01*
X14459966Y2394051D01*
X14459966Y2331669D01*
X14459153Y2327706D01*
X14456867Y2324354D01*
X14452396Y2321814D01*
X14436547Y2317902D01*
X14433042Y2317496D01*
X14429689Y2312517D01*
G37*
G36*
X9017000Y2345232D02*
G01*
X9030817Y2346096D01*
X9034475Y2346756D01*
X9043365Y2347315D01*
X9056776Y2350008D01*
X9069730Y2354427D01*
X9082024Y2360472D01*
X9093403Y2368092D01*
X9103715Y2377084D01*
X9112707Y2387396D01*
X9120327Y2398776D01*
X9126372Y2411018D01*
X9130792Y2424023D01*
X9133433Y2437434D01*
X9134348Y2451100D01*
X9133433Y2464765D01*
X9130792Y2478176D01*
X9126372Y2491130D01*
X9120327Y2503424D01*
X9112707Y2514803D01*
X9103715Y2525064D01*
X9093403Y2534107D01*
X9082024Y2541676D01*
X9069730Y2547772D01*
X9056776Y2552141D01*
X9043365Y2554833D01*
X9033408Y2555544D01*
X9030817Y2556103D01*
X9017000Y2556967D01*
X9003182Y2556103D01*
X8989618Y2553360D01*
X8976461Y2548940D01*
X8964066Y2542794D01*
X8952534Y2535123D01*
X8942120Y2525979D01*
X8932976Y2515565D01*
X8925306Y2504033D01*
X8919159Y2491638D01*
X8914739Y2478481D01*
X8911996Y2464917D01*
X8911132Y2451100D01*
X8911996Y2437282D01*
X8914739Y2423718D01*
X8919159Y2410561D01*
X8925306Y2398166D01*
X8932976Y2386634D01*
X8942120Y2376220D01*
X8952534Y2367076D01*
X8964066Y2359406D01*
X8976461Y2353259D01*
X8989618Y2348839D01*
X9003182Y2346096D01*
G37*
G36*
X11628729Y2356154D02*
G01*
X11635333Y2359406D01*
X11646865Y2367076D01*
X11657279Y2376220D01*
X11666423Y2386634D01*
X11674094Y2398166D01*
X11677345Y2404770D01*
X11628729Y2404770D01*
G37*
G36*
X11523980Y2357221D02*
G01*
X11523980Y2404770D01*
X11476126Y2404770D01*
X11479072Y2398776D01*
X11486692Y2387396D01*
X11495735Y2377084D01*
X11505996Y2368092D01*
X11517376Y2360472D01*
G37*
G36*
X14323822Y2482951D02*
G01*
X14371066Y2482951D01*
X14371066Y2530144D01*
X14366443Y2528011D01*
X14354962Y2520696D01*
X14344548Y2511907D01*
X14335404Y2501747D01*
X14327682Y2490520D01*
G37*
G36*
X14459966Y2482951D02*
G01*
X14507311Y2482951D01*
X14506600Y2484526D01*
X14499691Y2496261D01*
X14491207Y2506980D01*
X14481403Y2516479D01*
X14470430Y2524556D01*
X14459966Y2530297D01*
G37*
G36*
X14795500Y2496616D02*
G01*
X14814702Y2497531D01*
X14833701Y2500376D01*
X14852345Y2505049D01*
X14870480Y2511501D01*
X14887854Y2519730D01*
X14904313Y2529636D01*
X14919756Y2541066D01*
X14934031Y2553970D01*
X14946934Y2568244D01*
X14958364Y2583688D01*
X14968270Y2600147D01*
X14976500Y2617520D01*
X14982951Y2635656D01*
X14987625Y2654300D01*
X14990470Y2673299D01*
X14991384Y2692501D01*
X14990470Y2711704D01*
X14987625Y2730703D01*
X14982951Y2749346D01*
X14976500Y2767482D01*
X14968270Y2784856D01*
X14958364Y2801315D01*
X14946934Y2816758D01*
X14934031Y2831033D01*
X14919756Y2843936D01*
X14904313Y2855366D01*
X14887854Y2865272D01*
X14870480Y2873502D01*
X14852345Y2879953D01*
X14833701Y2884627D01*
X14814702Y2887472D01*
X14795500Y2888386D01*
X14776297Y2887472D01*
X14757298Y2884627D01*
X14738654Y2879953D01*
X14720519Y2873502D01*
X14703145Y2865272D01*
X14686686Y2855366D01*
X14671243Y2843936D01*
X14656968Y2831033D01*
X14644065Y2816758D01*
X14632635Y2801315D01*
X14622729Y2784856D01*
X14614499Y2767482D01*
X14608048Y2749346D01*
X14603374Y2730703D01*
X14600529Y2711704D01*
X14599615Y2692501D01*
X14600529Y2673299D01*
X14603374Y2654300D01*
X14608048Y2635656D01*
X14614499Y2617520D01*
X14622729Y2600147D01*
X14632635Y2583688D01*
X14644065Y2568244D01*
X14656968Y2553970D01*
X14671243Y2541066D01*
X14686686Y2529636D01*
X14703145Y2519730D01*
X14720519Y2511501D01*
X14738654Y2505049D01*
X14757298Y2500376D01*
X14776297Y2497531D01*
G37*
G36*
X11476177Y2497429D02*
G01*
X11523980Y2497429D01*
X11523980Y2544927D01*
X11517376Y2541676D01*
X11505996Y2534107D01*
X11495735Y2525064D01*
X11486692Y2514803D01*
X11479072Y2503424D01*
G37*
G36*
X11628729Y2497429D02*
G01*
X11677345Y2497429D01*
X11674094Y2504033D01*
X11666423Y2515565D01*
X11657279Y2525979D01*
X11646865Y2535123D01*
X11635333Y2542794D01*
X11628729Y2546045D01*
G37*
G36*
X11502948Y2599182D02*
G01*
X11661902Y2599182D01*
X11667591Y2599690D01*
X11754561Y2615946D01*
X11763502Y2616606D01*
X11775998Y2619349D01*
X11787936Y2623820D01*
X11799112Y2629916D01*
X11809323Y2637536D01*
X11818366Y2646578D01*
X11825986Y2656789D01*
X11832082Y2667965D01*
X11836552Y2679903D01*
X11839295Y2692400D01*
X11840159Y2705100D01*
X11839295Y2717800D01*
X11836552Y2730296D01*
X11832082Y2742234D01*
X11825986Y2753410D01*
X11818366Y2763621D01*
X11809323Y2772664D01*
X11799112Y2780284D01*
X11787936Y2786380D01*
X11775998Y2790850D01*
X11763502Y2793593D01*
X11754561Y2794254D01*
X11667591Y2810459D01*
X11661902Y2811018D01*
X11502796Y2811018D01*
X11485981Y2809290D01*
X11398808Y2794254D01*
X11389868Y2793593D01*
X11377371Y2790850D01*
X11365433Y2786380D01*
X11354257Y2780284D01*
X11344046Y2772664D01*
X11335004Y2763621D01*
X11327384Y2753410D01*
X11321288Y2742234D01*
X11316817Y2730296D01*
X11314074Y2717800D01*
X11313210Y2705100D01*
X11314074Y2692400D01*
X11316817Y2679903D01*
X11321288Y2667965D01*
X11327384Y2656789D01*
X11335004Y2646578D01*
X11344046Y2637536D01*
X11354257Y2629916D01*
X11365433Y2623820D01*
X11377371Y2619349D01*
X11389868Y2616606D01*
X11398808Y2615946D01*
X11486134Y2600909D01*
G37*
G36*
X9017000Y2599232D02*
G01*
X9030817Y2600096D01*
X9034627Y2600807D01*
X9043365Y2601366D01*
X9056776Y2604008D01*
X9069730Y2608427D01*
X9082024Y2614472D01*
X9093403Y2622092D01*
X9103664Y2631135D01*
X9112707Y2641396D01*
X9120327Y2652776D01*
X9126372Y2665069D01*
X9130792Y2678023D01*
X9133433Y2691434D01*
X9134348Y2705100D01*
X9133433Y2718765D01*
X9130792Y2732176D01*
X9126372Y2745130D01*
X9120327Y2757424D01*
X9112707Y2768803D01*
X9103664Y2779064D01*
X9093403Y2788107D01*
X9082024Y2795727D01*
X9069730Y2801772D01*
X9056776Y2806192D01*
X9043365Y2808833D01*
X9033306Y2809595D01*
X9030817Y2810103D01*
X9017000Y2810967D01*
X9003182Y2810103D01*
X8989618Y2807360D01*
X8976461Y2802940D01*
X8964066Y2796794D01*
X8952534Y2789123D01*
X8942120Y2779979D01*
X8932976Y2769565D01*
X8925306Y2758033D01*
X8919159Y2745638D01*
X8914739Y2732481D01*
X8911996Y2718917D01*
X8911132Y2705100D01*
X8911996Y2691282D01*
X8914739Y2677718D01*
X8919159Y2664561D01*
X8925306Y2652166D01*
X8932976Y2640634D01*
X8942120Y2630220D01*
X8952534Y2621076D01*
X8964066Y2613406D01*
X8976461Y2607259D01*
X8989618Y2602839D01*
X9003182Y2600096D01*
G37*
G36*
X4857648Y2636469D02*
G01*
X4968646Y2636469D01*
X4968646Y2747467D01*
X4962042Y2744012D01*
X4942535Y2731668D01*
X4924094Y2717698D01*
X4906924Y2702204D01*
X4891125Y2685389D01*
X4876749Y2667254D01*
X4863998Y2648000D01*
G37*
G36*
X15504007Y2636469D02*
G01*
X15615005Y2636469D01*
X15615005Y2747467D01*
X15608401Y2744012D01*
X15588894Y2731668D01*
X15570504Y2717698D01*
X15553334Y2702204D01*
X15537535Y2685389D01*
X15523159Y2667254D01*
X15510357Y2648000D01*
G37*
G36*
X15877743Y2636469D02*
G01*
X15988944Y2636469D01*
X15976193Y2657805D01*
X15962579Y2676448D01*
X15947491Y2693974D01*
X15930981Y2710129D01*
X15913201Y2724861D01*
X15894202Y2738069D01*
X15877743Y2747568D01*
G37*
G36*
X5231333Y2636469D02*
G01*
X5342534Y2636469D01*
X5341772Y2637993D01*
X5329783Y2657754D01*
X5316220Y2676448D01*
X5301081Y2693974D01*
X5284571Y2710129D01*
X5266791Y2724861D01*
X5247792Y2738069D01*
X5231333Y2747568D01*
G37*

%LPD*%
G36*
X15113812Y-1612900D02*
G01*
X15072360Y-1667611D01*
X15229840Y-1667611D01*
X15213787Y-1612900D01*
G37*
G36*
X15113812Y-1612900D02*
G01*
X15085060Y-1666087D01*
X15242540Y-1666087D01*
X15213787Y-1612900D01*
G37*
G36*
X13843000Y1348740D02*
G01*
X13823950Y1310640D01*
X13887450Y1310640D01*
X13868400Y1348740D01*
G37*
G36*
X9004300Y-1758950D02*
G01*
X8985250Y-1786889D01*
X9048750Y-1786889D01*
X9029700Y-1758950D01*
G37*
G36*
X11502390Y2785110D02*
G01*
X11402466Y2768600D01*
X11402466Y2641600D01*
X11502390Y2625090D01*
G37*
G36*
X11662410Y2785110D02*
G01*
X11662410Y2625090D01*
X11750903Y2641600D01*
X11750903Y2768600D01*
G37*
G36*
X13843000Y1348740D02*
G01*
X13823950Y1310640D01*
X13887450Y1310640D01*
X13868400Y1348740D01*
G37*
G36*
X13522960Y-594360D02*
G01*
X13449300Y-623112D01*
X13449300Y-723087D01*
X13522960Y-751840D01*
G37*
G36*
X13680440Y-594360D02*
G01*
X13522960Y-751840D01*
X13672413Y-814527D01*
X13743127Y-743813D01*
G37*
G36*
X13522960Y-594360D02*
G01*
X13449300Y-623112D01*
X13449300Y-723087D01*
X13522960Y-751840D01*
G37*
G36*
X11490960Y2783840D02*
G01*
X11402466Y2768600D01*
X11402466Y2641600D01*
X11490960Y2626360D01*
G37*
G36*
X11648440Y2783840D02*
G01*
X11648440Y2626360D01*
X11750903Y2641600D01*
X11750903Y2768600D01*
G37*
G36*
X9004300Y-1758950D02*
G01*
X8985250Y-1788160D01*
X9048750Y-1788160D01*
X9029700Y-1758950D01*
G37*
G36*
X8964066Y733094D02*
G01*
X8908084Y685800D01*
X8908084Y660400D01*
X8964066Y613105D01*
G37*
G36*
X9096146Y938682D02*
G01*
X9018574Y847140D01*
X9091879Y846988D01*
X9108338Y866444D01*
G37*
G36*
X11503253Y2462682D02*
G01*
X11491061Y2390444D01*
X11507520Y2370988D01*
X11580825Y2371140D01*
G37*
G36*
X11507520Y1515211D02*
G01*
X11491061Y1495755D01*
X11503253Y1423517D01*
X11580825Y1515059D01*
G37*
G36*
X11635333Y987094D02*
G01*
X11635333Y867105D01*
X11691315Y914400D01*
X11691315Y939800D01*
G37*
G36*
X11635333Y-1806905D02*
G01*
X11635333Y-1926894D01*
X11691315Y-1916887D01*
X11691315Y-1816912D01*
G37*
G36*
X14351000Y-565861D02*
G01*
X14304619Y-621030D01*
X14422780Y-621030D01*
X14376400Y-565861D01*
G37*
G36*
X6652412Y-807872D02*
G01*
X6646214Y-879652D01*
X6664147Y-897585D01*
X6735927Y-891387D01*
G37*
G36*
X7058659Y-733856D02*
G01*
X6986676Y-734060D01*
X7062927Y-824280D01*
X7075119Y-753364D01*
G37*
G36*
X7312659Y-733856D02*
G01*
X7240676Y-734060D01*
X7316927Y-824280D01*
X7329119Y-753364D01*
G37*
G36*
X14351000Y-565912D02*
G01*
X14304670Y-621030D01*
X14422729Y-621030D01*
X14376400Y-565912D01*
G37*
G36*
X6665823Y-801319D02*
G01*
X6653580Y-872236D01*
X6670040Y-891743D01*
X6742023Y-891540D01*
G37*
G36*
X7064502Y-728014D02*
G01*
X6992772Y-734212D01*
X7076287Y-817727D01*
X7082485Y-745998D01*
G37*
G36*
X7318502Y-728014D02*
G01*
X7246772Y-734212D01*
X7330287Y-817727D01*
X7336485Y-745998D01*
G37*
G36*
X11491112Y2456027D02*
G01*
X11484914Y2384247D01*
X11502847Y2366314D01*
X11574627Y2372512D01*
G37*
G36*
X11502847Y1519885D02*
G01*
X11484914Y1501952D01*
X11491112Y1430172D01*
X11574627Y1513687D01*
G37*
G36*
X11621770Y986180D02*
G01*
X11621770Y868019D01*
X11676888Y914400D01*
X11676888Y939800D01*
G37*
G36*
X9108287Y932027D02*
G01*
X9024772Y848512D01*
X9096552Y842314D01*
X9114485Y860247D01*
G37*
G36*
X8977630Y732180D02*
G01*
X8922512Y685800D01*
X8922512Y660400D01*
X8977630Y614019D01*
G37*
G36*
X11621770Y-1807819D02*
G01*
X11621770Y-1925980D01*
X11676888Y-1916887D01*
X11676888Y-1816912D01*
G37*
G36*
X14198854Y2542235D02*
G01*
X14154353Y2488946D01*
X14268653Y2488895D01*
X14224254Y2542235D01*
G37*
G36*
X8157921Y-1911705D02*
G01*
X8108899Y-1951532D01*
X8108899Y-1976932D01*
X8157921Y-2016709D01*
G37*
G36*
X4930597Y2538577D02*
G01*
X5105400Y2363622D01*
X5130800Y2363622D01*
X5305602Y2538577D01*
G37*
G36*
X7726121Y-2263495D02*
G01*
X7653070Y-2269642D01*
X7737957Y-2354529D01*
X7744104Y-2281478D01*
G37*
D10*
X5283200Y2705100D02*
G01*
X5143500Y2705100D01*
X5143500Y308863D01*
X6381750Y-929386D01*
X6614413Y-929386D01*
X6731000Y-812800D01*
X8204200Y-1964207D02*
G01*
X8043392Y-1964207D01*
X7658100Y-2349500D01*
X14909800Y-1744802D02*
G01*
X14902002Y-1752600D01*
X14897100Y-1752600D01*
X9017000Y-1813052D02*
G01*
X9017000Y-1758950D01*
X9017000Y-1812925D02*
G01*
X9017000Y-1866900D01*
X11569700Y2451100D02*
G01*
X11460276Y2341676D01*
X11460276Y1544523D01*
X11460276Y1544523D02*
G01*
X11569700Y1435100D01*
D11*
X11569700Y2705100D02*
G01*
X11402568Y2705100D01*
X11582400Y2705100D02*
G01*
X11750802Y2705100D01*
X13790549Y2425547D02*
G01*
X13803502Y2438501D01*
D10*
X15151100Y-1752600D02*
G01*
X15156002Y-1752600D01*
X15163800Y-1744802D01*
X13601700Y-673100D02*
G01*
X13655040Y-673100D01*
X14643100Y-1752600D02*
G01*
X14648002Y-1752600D01*
X14655800Y-1744802D01*
X14389100Y-1752600D02*
G01*
X14394002Y-1752600D01*
X14401800Y-1744802D01*
X9017000Y165100D02*
G01*
X9021699Y165100D01*
X9029700Y173101D01*
X6997700Y-812800D02*
G01*
X8483600Y673100D01*
X9017000Y673100D01*
X14363700Y-673100D02*
G01*
X14363700Y-279400D01*
X13157200Y927100D01*
X11582400Y927100D01*
X13855700Y1231900D02*
G01*
X13855700Y1841500D01*
X13652500Y2044700D01*
X13652500Y2489200D01*
X13804900Y2641600D01*
X14122400Y2641600D01*
X14211554Y2552445D01*
X14211554Y2438400D01*
X7251700Y-812800D02*
G01*
X8610600Y546100D01*
X9072600Y546100D01*
X9136964Y610463D01*
X9136964Y819835D01*
X9029700Y927100D01*
D12*
X13601700Y-673100D02*
G01*
X13449300Y-673100D01*
X12255500Y-1866900D01*
X11582400Y-1866900D01*
X13601700Y-673100D02*
G01*
X14312900Y-1384300D01*
X14935200Y-1384300D01*
X15163800Y-1612900D01*
X15163800Y-1744726D01*
D13*
G01*
X7404100Y-2349500D03*
G01*
X7658100Y-2349500D03*
D14*
G01*
X15746374Y2505100D03*
G01*
X15746374Y-3340100D03*
G01*
X5099989Y2505100D03*
G01*
X5099989Y-3340100D03*
D15*
G01*
X8204200Y-3014192D03*
G01*
X8204200Y-1964207D03*
D16*
G01*
X14517497Y2260498D03*
G01*
X14415490Y2438501D03*
G01*
X14313509Y2260498D03*
G01*
X14211503Y2438501D03*
G01*
X14109496Y2260498D03*
G01*
X14007490Y2438501D03*
G01*
X13905509Y2260498D03*
G01*
X13803502Y2438501D03*
D17*
G01*
X9029700Y-1866900D03*
D18*
G01*
X11569700Y-1866900D03*
G01*
X9029700Y-1612900D03*
G01*
X11569700Y-1612900D03*
G01*
X9029700Y-1358900D03*
G01*
X11569700Y-1358900D03*
G01*
X9029700Y-1104900D03*
G01*
X11569700Y-1104900D03*
G01*
X9029700Y-850900D03*
G01*
X11569700Y-850900D03*
G01*
X9029700Y-596900D03*
G01*
X11569700Y-596900D03*
G01*
X9029700Y-342900D03*
G01*
X11569700Y-342900D03*
G01*
X9029700Y-88900D03*
G01*
X11569700Y-88900D03*
G01*
X9029700Y173101D03*
G01*
X11569700Y165100D03*
G01*
X9029700Y419100D03*
G01*
X11569700Y419100D03*
G01*
X9029700Y673100D03*
G01*
X11569700Y673100D03*
G01*
X9029700Y927100D03*
G01*
X11569700Y927100D03*
G01*
X9029700Y1181100D03*
G01*
X11569700Y1181100D03*
G01*
X9029700Y1435100D03*
G01*
X11569700Y1435100D03*
D20*
G01*
X9029700Y1689100D03*
D18*
G01*
X11569700Y1689100D03*
G01*
X9029700Y1943100D03*
G01*
X11569700Y1943100D03*
G01*
X9029700Y2197100D03*
G01*
X11569700Y2197100D03*
G01*
X9029700Y2451100D03*
G01*
X11569700Y2451100D03*
G01*
X9029700Y2705100D03*
D17*
G01*
X11569700Y2705100D03*
D18*
G01*
X7239000Y-812800D03*
G01*
X6985000Y-812800D03*
G01*
X6731000Y-812800D03*
D17*
G01*
X6477000Y-812800D03*
D18*
G01*
X7493000Y-812800D03*
G01*
X14109700Y-673100D03*
G01*
X13855700Y-673100D03*
D17*
G01*
X13601700Y-673100D03*
D18*
G01*
X14363700Y-673100D03*
G01*
X14617700Y-673100D03*
D17*
G01*
X13855700Y1231900D03*
D18*
G01*
X14109700Y1231900D03*
G01*
X14363700Y1231900D03*
D21*
G01*
X15163800Y-1744802D03*
D22*
G01*
X14909800Y-1744802D03*
D16*
G01*
X14655800Y-1744802D03*
G01*
X14401800Y-1744802D03*
G01*
X14147800Y-1744802D03*
G01*
X13893800Y-1744802D03*
G01*
X13639800Y-1744802D03*
G01*
X13385800Y-1744802D03*
G01*
X13131800Y-1744802D03*
G01*
X12877800Y-1744802D03*
M02*
